<svg id="Layer_1" data-name="Layer 1" xmlns="http://www.w3.org/2000/svg" viewBox="0 0 521.92 291.39"><defs><style>.cls-1{fill:#231f20;}</style></defs><title>logo_1</title><path class="cls-1" d="M1.54,3.82l.77.66h1L4,4.15l.13.33v1a11.85,11.85,0,0,1-1.67,5.61L1.28,17Q0,16.68,0,16v-3l.13-1.32-.13-1L.26,8.11l-.13-2V4.81q0-.66,1.41-1m5.51-.33H8.46l.26.66v.33l-.13.33.26,3v.66H8.72l.13,3.3v1.32l-.13,9.56.13.33v.33L8.72,24.6v1.65l.13,2-.13.33v.33L9,34.49l-.13,1q1.41.74,1.41,1.32-.21,4.29-.64,4.29l-2.82.66-.13-.33H6.54L6,41.74q-1.15-.22-1.15-.66l-.13.33H4.23a8.12,8.12,0,0,1-.77-3.3v-.66q1.11-2,1.79-2v-1H4.87v-1l-.13-1.32.13-.33v-.33L4.74,26.9v-.33l.13-1.65-.13-2V17.34L4.62,16l.26-4.62-.13-.33q0-6.93.9-6.92ZM7.44,22l-.39,1-.13-.33H6.8v1l.13,2.31H6.67l-.13-1.65H6.41q0,1.32-.26,1.32l.13.33v1H6.15L6,26.57H5.9L6,24.93v-.66H5.77l.13.33v.66H5.77l-.38-.66L5,24.93v.33c.17,0,.26.33.26,1h.13v-.66q.26,0,.38,2H6v.33l.13-.33h.13l.13.33.13-.33h.13q.38,0,.38,1l.51-.66v-1H7.05v-.33q.31-2,.77-2V22.95q-.38,0-.38-.66h.26V22ZM5.13,31.19,5,31.52v.66h.39v-.33Zm.38-.66v1h.26v-.33Zm.51,1,.13,1.65-.38.66a3.25,3.25,0,0,0,.77,2.31h.39q0-1.32.38-1.32-.1-2.31-.9-2.31v-1Zm1.92-18.8c0,.66-.08,1-.26,1v.66l.51.33v-2ZM9.62,4.15h.26l.13.33.13-.33h.64q.9.11.9.66l.64-.33h.38l.13.33h.13l-.26,10.88q-.81,0-1.28,1.32l-.64-4.62L9.36,7.45V4.81Z"/><path class="cls-1" d="M17.1,15.28h.26q.51,0,1.28,6.93-.64,2-1.41,2l-.13.33v1q.26,0,.26,1.65l.13-.33H19q.9,0,.9,3l-.39,1,.13,1-.13.33h-.38l-.77-.33-.77.66h-.39l-.51,3.3Q18,36.61,18,39.35l-.38.66-.13-.33V40l.13.33v.33l-.51.66L16,41l-.38.33-1-.33-.9.33q-1.18,0-1.41-4.29,0-1,.9-1a12.23,12.23,0,0,0,1.79-6.6q.77-4,1.54-10.22l.13-.33h.13l-.13-.33v-.33q.21-3,.51-3M14.67,37.7h.51L14.92,37Zm.9-7.26,1,1.32q.19-1.32.39-1.32l.13.33.13-.33q-.27-2-1-2a2.46,2.46,0,0,0-.64,2m1.54-28h2.31l.13.33.13-.33q1.91,0,2.44,3l1.28,11.87-.38,1a4.06,4.06,0,0,0,1,3Q25.66,35.4,26.59,35.4a1.81,1.81,0,0,1,.77,1.32q0,3.63-1.28,3.63L25.44,40a12.14,12.14,0,0,1-4.74,1.32,11.21,11.21,0,0,1-.64-4,5,5,0,0,0,1.15-2.31l-2.69-18.8L18,12.64q0-1.32.26-1.32,0-1-.51-1a11.07,11.07,0,0,1-.64-3A1.77,1.77,0,0,1,16.21,6V4.73q0-2.31.9-2.31m-.38,22.75v1h.38Zm.9,2.64v.66l.38-.33v-.33ZM18.9,5.06H19l.13-.33h.13Q19.35,6,19.67,6l.13-.33V5.39q-.51,0-.51-1h.26V3.74h-.13Zm0,12.86q.18,1.65.9,1.65h.51V17.92l-.51-1.65Zm.77-2.64v.33l.39.33v-.66ZM19.93,14v.66l.38.33v-.33L20.05,14Zm.26,1.32v.66l.39.33v.33l-.13.33v.33h.39l.13-1-.26-.66-.13.33h-.26v-.66Zm.9-4.29q0,1-.38,1v1q.43,0,.9,1l.26-1.65V12q-.26-1.32-.77-1.32Zm.26,12.2.26,1.65h.13q0-.66.38-.66v-.33Zm1.79,7.26v.33l.51,1.32H24l.13-2L24,29.79h-.64Z"/><path class="cls-1" d="M28.19,11.82h.26a10.35,10.35,0,0,1,.51,3l.51,1.65c0,.44-.17.66-.51.66v.33q.77,0,.77.66L29.6,19.4l.13.33h.13l.26-.66q1.41,3.49,1.41,11.21v3.3a4.4,4.4,0,0,0,1.15,3v.66l-.13,1,.13,2v.33l-.26,1-.64-.33-.9.33v-.33l-.13.33H29.6l-2.05-.33L27,41.5a13.32,13.32,0,0,1-.39-3.63q.57-1,1.15-1V34.24l.64-2.31-.39-.33-.26.66-.13-.33V23l-.13-3,.26-4-.13-.33v-.33q.26-3.63.51-3.63m4.1-8.24a11.82,11.82,0,0,1,1.41,5.61q.38,0,.38,1.32.51,1,1.79,7.91,2.49,9.65,3.46,15.5l-.13.33.13,1.65v1l-.13.33.13.33v.33q0,.55-1.54,2v.66q.51,0,.51.66l-.13.33h-.13q-.38,0-.39-1H37.3q0,1-1.15,1a.58.58,0,0,0-.64-.66l-.13-1.65q.38,0,.38-1l.64.33q.61-2.31,1-2.31v-.66l-.26-2.31h-.26v.66h-.39q0-2.31-.51-2.31l-.26.66-.26-.66-.13,2.31.51,1v.33h-.26l.64,2v.33h-.13l-.64-1.32-.26.66h.26v.66l-.39.33L32.3,25.34l.38-1q-.77,0-.77-1.32Q29.23,10.8,28.45,9.51a2.1,2.1,0,0,1-.77-1.32V7.86l.64.33.38-.33V6.54l-1.15.66-.13-.33V6.54l.13-.33h-.64V4.89a.94.94,0,0,1,1-1l.13.33h.13l.51-.33H29l.26.66-.26,1a1.45,1.45,0,0,0,.9,1.32V6.21l-.26-1v-1ZM29,8.85l.13.33h.13l.13-.33v-1Zm.38,28h-.13l-.13-.33H29v.66q.51,0,.51,1.65l.64.66.51-1v-.66l-.13-1,.13-.33L30,35.89Zm-.13-14.51.13,1h-.26l.26.66.64-.33v-1l-.39-1ZM29.6,9.51v.33q0,.66.51.66v.66h.26V10.5Zm.9-.33V10.5l.39.33V10.5Zm1,6.27v.33q.13,1.07.51,1.32l.26-1L32,15.44Zm1.28,9.89v.33L32.94,27h.26l.26-.66a1,1,0,0,0-.64-1M38.19,3.24l.77.33.13-.33h.13L40,4.56l.64-.33q0,4.29-.64,4.29t-.77,3l.13,2-.13,1.32.13,1.32-.13.33v.33l.13,1.65-.13,1.32L39.35,21l-.13,4.29v.33h-.13a15.58,15.58,0,0,1-1.92-6.27v-2l.64-2.31-.13-.33H37.3v1L37,15.11v-.66h.13L37,12.15v-3l-.77-.66-.51.33c-.17,0-.26-.33-.26-1q0-4.62,1-4.62Zm-.64,26.38V30l.26.66.26-.66v-.33Z"/><path class="cls-1" d="M41.61,3h.26L43,3.32,43.15,3l.64.33h.39L46.48,3q1.8,0,1.8,3.63l-1.16,2-.38-1a1.41,1.41,0,0,0-.51,1v.66l.13,1.65h.51l.13-.33h.13l.13.33v1l-.13.33.13.33-.38,10.88.26,2.64v1.32h-.26V28q.51,0,.51,5.28l-.13.33h-.13L47,33.33l-.38,2,1.54,3.3v1.65q-.29,1.65-1.28,1.65l-.77-1.65.13-.33v-.33H46v-.33l-1,2.31H44q-1.76,0-2.44-2.64V37.61a2.11,2.11,0,0,1,.77-1.32l.26-1-.13-1.65V32.34h.26v1H43l.26-2.64h-.13l.13-.33V29.7a12.11,12.11,0,0,1-.64-4.62V22.44l-.13-1.32.13-.33v-.33l-.13-4.95.13-4.62.51.33.64-.33v-1q-.38,0-.38-2l-.77.66q0-1.65-.26-1.65a2.37,2.37,0,0,1-.9-1.65Zm1.28,34.3V38.6l.26-.66ZM43.28,35v1.32q.33,1.65,1,1.65h.13l.26-3A1,1,0,0,0,44,34a1.07,1.07,0,0,0-.77,1m.64-23.08-.13,1H44v-1Zm.77,4.95.77,1.65.51-2q-.29,0-.39-1.65h-.51q-.38.33-.39,2m.51,9.89-.26,2v1l.77,1.65h.13q.59-2,.9-2V29q-.39,0-.39-1-.42,0-1.15-1.32m-.26,4.95V32q.19,1.32.39,1.32v-1l-.26-.66ZM45.33,36v.66l.38.33v-.33L45.46,36ZM49.56,3h3.33l.13.33L53.15,3h.13l.13.33L54.3,3h.64l.38,1V5.63q0,1.18-2.31,2.31l-2.44,8.9q2.35,11.43,4.23,17.48a15,15,0,0,1,1.28,3.63q-.52,3.24-.77,3.3h-.38l-.13-.33-.13.33h-.13l-.13-.33-2.82,1-1.15-.33-.38.33a15.9,15.9,0,0,1-.64-4l.77-2-2.05-9.23-.38-1.32.26-.66a31.78,31.78,0,0,1-.64-4.95,27.34,27.34,0,0,1,1.54-5.61l1.54-5.61V7.27c-.31,0-.56-.33-.77-1l-.13.33h-.13L49.18,6V4Z"/><path class="cls-1" d="M58.62,29.45q.38.33.38,2v1q.55,0,2.05,3.3a3.64,3.64,0,0,1,1.28,2v2q0,.8-1.28,1L60.67,40l-.64.33L58.24,39q-.3,2-.51,2h-.38Q57,41,57,37.37v-6.6a1,1,0,0,1,.64-1l.26.66q.13-1,.77-1M62,2.41l.13.33L62,3.07v.66l.26.66h.13V3.07h.13l.26.66v2L61.31,7.36A10.37,10.37,0,0,0,60.67,11q0,2.64,3.59,4.29a12,12,0,0,1,3.08,5.61,21,21,0,0,1,1.54,8.57,28,28,0,0,1-1.54,8.24q-1.8,3.63-2.56,3.63h-1L63.24,40V38L65,35.39c0-.66.08-1,.26-1h.26l-.13.33v.33h.38V34.4h-.26v-.33h.39l.13,1h.13q.7,0,.9-1.32v-.33l-.13.33H66.7v-.33l.13-1-.13-.33h-.38l-.77.66q0-4.29-1.79-4.29L60,25.82q-2.82-4-2.82-12.2v-1q0-6.49,3.08-9.89l.13,1.32h.38l.26-.66-.13-.33ZM58,31.76l.26,1,.38-.33v.66h.26v-.66l-.9-1Zm4.87-10.88.13,1q.38-.25.64-2.31l-.13-.33q-.51,0-.51,1.65ZM64.77,2.41v.33l-.26,1.65.13,1h.13l.39-.66.38.33V4.72l-.26-1.65.13-.33h.13q0,1,.51,1l.13,2h.13q0-1,.9-1a3,3,0,0,1,.64-2.31,1.06,1.06,0,0,1,.77,1V4.72q0,2.42-.38,2.64H68L67.85,7h-.13l-.51,2.64q.26,0,.26,1h.13A7.71,7.71,0,0,1,68.49,8l.13.33v.33q-.33,0-.51,2.31h.13l.38-.33.13.33v.33q-.53,2.31-.77,2.31h-.13Q65.52,7,64,7c-.34,0-.51-.22-.51-.66q0-3.63.64-3.63Zm0,20.45v.33h.39v.33l-.26,1H65q.27-.14.51-1.65l-.38-.66H65Zm.13-2h.26v-1H64.9Z"/><path class="cls-1" d="M79.29,25.41l.13.33v.33l-.26,1.32h.13l.39-.66q0,1.32.9,1.32l.26,2v1.65q-1,0-1-1.32-.26.66-1.67.66l.26,1,.64-.33.26,1,.64-1,.13,1.65-.38,1.32V35l.13-.33h.13q0,1.65,1.15,1.65V37h.13v-.33l-.13-1,.39-.66a2.37,2.37,0,0,1,.9,1.65q-.16,3.63-.64,3.63H77.88l-1-.66H76.6l-.9.66-.13-.33V37.61l-.13-2q.25-1.51.51-1.65h.77v-.66h.13L76.73,33V29H77v-2q.77,0,.77-1h.39l.51,1a2,2,0,0,1,.64-1.65M76.09,1.83l2.69.66V2.16l.13.33L81,1.83q.77.25.77.66l.13-.33H82l.26.66V5.13q0,2.5-1.28,2.64l-.26,5.11.13.33-.13,2.31V20.8l.13,3.3a2.5,2.5,0,0,1-1.79.66q0-.77-1.15-1.65c0,.66-.09,1-.26,1l-.13-1,.13-.33v-.33a7,7,0,0,0-.9-2.64V11.07l-.13-3.3h.13q-.08-1.32-.9-1.32l-.26-1V3.81Zm1,22.92v.33l-.26.66-.13-.33v-.33l.13-.33Zm.51,2.64V28h.77v-.33l-.26-.66Zm1,.66v.33q.38,0,.39,1h.13v-1c-.17,0-.26-.33-.26-1Zm.26,6.6v1l.38.33.13-.33v-1Zm.26,4v.33l.26-.66v-.33ZM80.32,29l.13,1h.13V29Z"/><path class="cls-1" d="M87.58,2.41l.64.33,1-.33.26.66-.26,3,.13.33-.26,14.18.13.33v.33q-.28,3.63-.77,3.63t-.39.66h.26v.66H88.1L88,25.82h-.13a10,10,0,0,0-.64,3.3q-.38,0-.38.66a1.46,1.46,0,0,1,.51,1.32l.9-.33v.33l.51-.66.38.33v2q0,2.58,1,3V36q0,4.53-1.15,4.95l-.77-.33h-.64l-.13-2.31.13-.33-.64-.33A1.93,1.93,0,0,1,86.43,39h-.26L86,38.69l-.13.33h-.26l-.13-.33H85.4l.13-.33v-1h-.26V37l-.38.33.13.33v.66h-.26l.13.33V39l-.13.33h-.13l-.13-1h-.77q-.33,0-.51-2.31,1.41-1.15,1.41-1.65,0-2.31.26-2.31v.66h.26l.26-.66.13.33h.13q.26,0,.26-1.32a.57.57,0,0,0,.64-.66l.13-2.64a14.17,14.17,0,0,0-1.15,3.63H85.4l-.64-1.32v-.33l.13-.33v-.33l-.13-.33h-.13q.1-2,.26-2l-.13-1.65V20.55l-.13-1.32.13-1.32-.13-.33.13-1.65-.13-5.61.13-2Q83.35,7.52,83.35,7V6.7a12.86,12.86,0,0,1,.77-4H85l.13.33.13-.33h1.54ZM84,39.34h.13v1h-.38V40ZM85.4,6v.33l.26.66.13-.33-.13-1.32Zm4.82-3.57h.38l.77.33.13-.33h.13l1.16.66.38-.33q2.44,1.37,2.44,3.3a22,22,0,0,1,.9,5.61V14q0,8.08-1.92,10.55a3.68,3.68,0,0,1-1.92,1.65v.33h1.67l.13.33.13-.33h.13l1.15,7.58q.8,0,1.15,1.65v3.3q-.13,1-.77,1H94.07l-1.92.33L92,40.06v-1l.13-.33a13.13,13.13,0,0,1-.51-3l.13-.33v-.33q-.59-.85-1.67-10.55L90,24.23V23.9l.13-2-.13-1q2.31-.71,2.31-4.95l.13-3.3-.13-1.32.13-1q0-2.55-1.79-3.3l-.38.33-.13-.33V6.75ZM95.4,20.22l.13.33h.13v-1Z"/><path class="cls-1" d="M103.9,41.46h-.13l-.64-1.65-.13.33v.33l.13.33-.39.33q-3.59-2-3.59-4.95-.86,0-1.28-14.51l.13-.33V21l-.13-1q.43-5.17,1.28-10.22l.64.33h.26l.26-.66-.26-2q1.74-6.27,4-6.27h.26l.64,2.64a6.71,6.71,0,0,1-1.41,3.63q-.48,0-.9,8.24l.13,2.31L102.62,26v1l.13,2.31h-.13q0,7.58,1.79,7.58l.26,2.64v.66ZM99.54,20.69l.39-1.32h-.26V19l.13-.33v-.33L99.67,18h-.26A4,4,0,0,1,99,19.7Zm.51,9.56v-1l-.26-.66h-.26q.16,1.65.39,1.65Zm1.54-15.83.13-.33v-.33l-.13-.33h-.51ZM102,39.81l-.26-.66h-.13v.66Zm.51-12.2-.26-.66h-.13v.66Zm4.87,13.85q-1.79,0-1.79-3.3.77-2,1.67-2h.51l.26-1.65-.39-1,.13-.33-.13-.33q.26-2.61.39-16.49,0-8.68-2.31-9.89l-.13-3.3q.35-1.65,1-1.65,4.46,0,6.54,16.49v.33a6.9,6.9,0,0,0-.64,3.3q.38,0,.38,1.32h.26q0,2.91-.77,3.63l-.13-.33h-.13l-.38,1.65.77,2a26.15,26.15,0,0,1-1,4.62h-.13a3.66,3.66,0,0,0-.77-2.64h-.38a7.78,7.78,0,0,1-.26,2.31v.66a1.06,1.06,0,0,0,.77,1l.39-.33v.33l-1.54,3.3h-.26l-.38-.66h-.13l-.26.66.13.33Zm.9-29,.51-2.64h-.64v.66H108l.13.33v.33L108,12.44Zm1.41,18.47V29.59h-.13v.66h-.39v-.33l.26-1v-1l-.51-1.65-.13.33h-.38l-.13-.33h-.13v.33l.13,1.65-.13.33q.26,0,.51,2a.57.57,0,0,1,.64.66Zm-.38-8.9v-.33l-.38-1-.13,1,.13.33Zm.26,15.5v-.33l-.26-.66v1ZM111.08,22q-.25-1.51-.51-1.65h-.64V21h.39v.33l-.26,1v.33l.26.66q.77,0,.77-1.32m.64,10.22v-1l-.26.66v.33Z"/><path class="cls-1" d="M115.52,11.07h.26a10.35,10.35,0,0,1,.51,3l.51,1.65c0,.44-.17.66-.51.66v.33q.77,0,.77.66l-.13,1.32.13.33h.13l.26-.66q1.41,3.49,1.41,11.21v3.3a4.4,4.4,0,0,0,1.15,3v.66l-.13,1,.13,2v.33l-.26,1-.64-.33-.9.33v-.33l-.13.33h-1.15l-2.05-.33-.51.33a13.32,13.32,0,0,1-.39-3.63q.57-1,1.15-1V33.49l.64-2.31-.39-.33-.26.66-.13-.33v-8.9l-.13-3,.26-4L115,15v-.33q.26-3.63.51-3.63m4.1-8.24A11.82,11.82,0,0,1,121,8.43q.38,0,.38,1.32.51,1,1.79,7.91,2.49,9.65,3.46,15.5l-.13.33.13,1.65v1l-.13.33.13.33v.33q0,.55-1.54,2v.66q.51,0,.51.66l-.13.33h-.13q-.38,0-.39-1h-.38q0,1-1.15,1a.58.58,0,0,0-.64-.66l-.13-1.65q.38,0,.38-1l.64.33q.61-2.31,1-2.31v-.66l-.26-2.31h-.26v.66h-.39q0-2.31-.51-2.31l-.26.66-.26-.66-.13,2.31.51,1v.33H123l.64,2v.33h-.13l-.64-1.32-.26.66h.26v.66l-.39.33-2.82-12.53.38-1q-.77,0-.77-1.32Q116.56,10,115.78,8.76A2.1,2.1,0,0,1,115,7.44V7.11l.64.33.38-.33V5.79l-1.15.66-.13-.33V5.79l.13-.33h-.64V4.14a.94.94,0,0,1,1-1l.13.33h.13l.51-.33h.26l.26.66-.26,1a1.45,1.45,0,0,0,.9,1.32V5.46l-.26-1v-1ZM116.29,8.1l.13.33h.13l.13-.33v-1Zm.38,28h-.13l-.13-.33h-.13v.66q.51,0,.51,1.65l.64.66.51-1v-.66l-.13-1,.13-.33-.64-.66Zm-.13-14.51.13,1h-.26l.26.66.64-.33v-1l-.39-1Zm.38-12.86v.33q0,.66.51.66v.66h.26V9.75Zm.9-.33V9.75l.39.33V9.75Zm1,6.27V15q.13,1.07.51,1.32l.26-1-.26-.66Zm1.28,9.89v.33l.13,1.32h.26l.26-.66a1,1,0,0,0-.64-1m5.38-22.09.77.33.13-.33h.13l.77,1.32.64-.33q0,4.29-.64,4.29t-.77,3l.13,2L126.55,14l.13,1.32-.13.33V16l.13,1.65L126.55,19l.13,1.32-.13,4.29v.33h-.13a15.58,15.58,0,0,1-1.92-6.27v-2l.64-2.31L125,14h-.38v1l-.26-.66V13.7h.13l-.13-2.31v-3l-.77-.66-.51.33c-.17,0-.26-.33-.26-1q0-4.62,1-4.62Zm-.64,26.38v.33l.26.66.26-.66v-.33Z"/><path class="cls-1" d="M133.3,2.33v.33l.13-.33h.77l.26.66-.51.66a9.36,9.36,0,0,0,.77,3.63q-.9,2.78-.9,20.78,0,6.6.9,6.6,0,.74,1.28,1.65v1.65l-.13.33.13.33v1.32l-.13.33v.33l-.9-.33v-.66l.39-1.32-.13-.33v-.33l.13-1h-.13l-.64-.33.13.33-.13,1.65v1l.13.33v.33l-.38.33q-.5,0-1-1.65h-.13l-.13.33h-.13l-.64-1.32h-.13v-.33l.13-.33v-.33L132,36l-.64.33q-1.73-2.72-2.56-11.54v-1l.26-.66-.26-1V18.49q.23-5.91.77-6.27l.38-.33-.26-1.65q.68-3.63,1-4l.13.33H131l.64-.66.13.33q.09-3.63,1.28-3.63l.13-.33ZM130,28.71v.66l.64,2H131l.26-.66-.51-1.32V29l.13-.33v-.33Zm1-11.87.13,2h.26V17.5l-.26-.66Zm1.41-5.94q.3,2,.51,2h.64v-.66h-.64l.13-1.65h.13l.13.33h.13v-.33l-.13-1H133ZM133.17,35l.13.33v.33l-.13,1.65.13.33-.13.33.39.33.38-3.3-.13-.33h-.13Zm.26-1.65.13,1h.13l.26-.66v-.33ZM135.61,2l.51,1v.33L136,4.64,136.12,6q-.71,1.32-1.41,1.32V6.95a2.92,2.92,0,0,1,.51-2l.13-1.32-.64-1.32Zm2.05-.58q2.31.19,2.31,2h.13l.9-2h.64v.66q-.38,0-.51,1.65l.64,2v6.6q0,3.3-1,3.3c0,.44-.17.66-.51.66L139.58,12a51.47,51.47,0,0,0-2.69-7.25l-.13-.33V4.06q0-2.64.9-2.64M141,26.07l.51,1.32v.33q0,7.56-2.44,12.2l-1.67,1a15,15,0,0,1-.38-3.3A4.73,4.73,0,0,1,138.68,34a30.64,30.64,0,0,0,1.54-7.58l.13-.33ZM137.66,4.39v.33l.77,1.65h.26l.38-2.64a1.64,1.64,0,0,0-.64-1.32q-.77,0-.77,2m1.92,5.28v.66A1.81,1.81,0,0,0,140.86,12v-.33L140.73,10l.13-.33q-.38,0-.38-1.65h-.26Z"/><path class="cls-1" d="M144.54,2.08l.51.33.51-.33a.58.58,0,0,1,.64.66l.13-.33h1.28l1.16-.33.64.33v3.3l-.26.66-.13-1h-.26l-.39,1,.13.33q-.38.33-.38,2v8.24l-.13,2,.13.33v.33L148,21.21l.13.33L148,23.19v2l.13,8.57-.64,3,.13.33h.13l.13-.33H148l.51.66.9-.66v2l-.26.66v-.66h-.26V39l.13.33v.33a1.92,1.92,0,0,1-1.15,1l-.13-.33-2.31.66-.26-.66-.26.66h-1.16l-.64.33a15.38,15.38,0,0,1-.51-4.62v-1h1v-.66h.26q0,1,1.15,1c0,.44-.13.66-.39.66V37a.58.58,0,0,1,.64.66l-.51.33v.66l.13-.33h.26L145,40l.64-.33-.13-.33V39l.64-.66-.13-1.65V35.39l.26-1-.13-1.32h-.13v.66h-.13l-.13-.33h-.13l-.13,1h-.26v-1h-1l-.51,1h-.13v-.66l.13-10.88-.13-7.58.13-3.3-.13-1.65.13.33H144v-.33h-.26V9L144,7.69l.51,1A3.85,3.85,0,0,1,145.31,6V5.71q-.26,0-.26-1l-.13-.33h-.64q-.19,0-.38,1.32L144,7v.33h-.39v-2q-.26,0-.26,1.32l-.13.33h-.38l-.26-.66v-1q0-3.3,1.54-3.3Zm-.38,13.52v.33q0,1,.51,1,.34-.22.64-1.65l-.9-.33Zm0,8.9v.33l.13,1.65h.13l.64-1.32V23.85h-.64Zm3.46,14.18v1h.13L148,39l-.13-.33ZM153,26.15h.13l1.41,1.32-.26,5.61v.33l.13,1.32L154.28,36v2.31Q154,40,153.64,40l-.13-.33-1.92.66V40l-.13.33h-.64q-.68,0-.9-1.32V36.38l.38-1v.33a6.71,6.71,0,0,0,2.56-5.61l-.13-.33v-.33ZM151.59,38h.26l.26-.66V37H152Zm.38-1.32q.44,0,.9,1.65H153v-1L152.49,36h-.26Z"/><path class="cls-1" d="M158.69,14.53h.26q.51,0,1.28,6.93-.64,2-1.41,2l-.13.33v1q.26,0,.26,1.65l.13-.33h1.54q.9,0,.9,3l-.39,1,.13,1-.13.33h-.38L160,31l-.77.66h-.38l-.51,3.3q1.28.88,1.28,3.63l-.39.66-.13-.33v.33l.13.33v.33l-.51.66-1.15-.33-.39.33-1-.33-.9.33q-1.18,0-1.41-4.29,0-1,.9-1a12.23,12.23,0,0,0,1.79-6.6q.77-4,1.54-10.22l.13-.33h.13l-.13-.33V17.5q.21-3,.51-3M156.26,37h.51l-.26-.66Zm.9-7.26,1,1.32q.19-1.32.38-1.32l.13.33.13-.33q-.27-2-1-2a2.46,2.46,0,0,0-.64,2m1.54-28H161l.13.33.13-.33q1.91,0,2.44,3L165,16.51l-.38,1a4.06,4.06,0,0,0,1,3q1.63,14.18,2.56,14.18a1.81,1.81,0,0,1,.77,1.32q0,3.63-1.28,3.63l-.64-.33a12.13,12.13,0,0,1-4.74,1.32,11.21,11.21,0,0,1-.64-4,5,5,0,0,0,1.15-2.31l-2.69-18.8-.51-3.63q0-1.32.26-1.32,0-1-.51-1a11.08,11.08,0,0,1-.64-3,1.77,1.77,0,0,1-.9-1.32V4q0-2.31.9-2.31m-.39,22.75v1h.39Zm.9,2.64v.66l.39-.33v-.33Zm1.28-22.75h.13l.13-.33h.13q.06,1.32.38,1.32l.13-.33V4.64q-.51,0-.51-1h.26V3H161Zm0,12.86q.18,1.65.9,1.65h.51V17.17l-.51-1.65Zm.77-2.64v.33l.39.33v-.66Zm.26-1.32v.66l.38.33v-.33l-.26-.66Zm.26,1.32v.66l.38.33v.33l-.13.33v.33h.39l.13-1-.26-.66-.13.33h-.26v-.66Zm.9-4.29q0,1-.39,1v1q.43,0,.9,1l.26-1.65v-.33q-.26-1.32-.77-1.32Zm.26,12.2.26,1.65h.13c0-.44.13-.66.38-.66V23.1Zm1.79,7.26V30l.51,1.32h.38l.13-2-.13-.33H165Z"/><path class="cls-1" d="M172,1.83q.95,0,1.28,2.31v.33h-.13l-.26-.66q-.38,0-.39,1-.52,1.65-1,1.65l-.13-.33-.13.33v.33l.26.66h.39c0-.66.08-1,.26-1l.26,1V8.1h-.26L172,7.77h-.13V8.1l.13.33v.33l-.26.66a7.64,7.64,0,0,1,.51,2.31l.13-.33h.38l.13.33H173v-.66l.38.33.39-.33v3.63l-.26.66-.13-.33v.33l.26,1-.13.33h-.13l-.38-1h-.13a2.85,2.85,0,0,0-.51,2h-.26V17l.13-.33v-.33H172v1.32l.13,2.31-.13.33q.55,1.73,1.28,2c0-.66.09-1,.26-1s.26.33.26,1l-.13.33v.33l.13.33v.33l-.13.33v.33l.13,2.64a4.9,4.9,0,0,1-.51,2l-.13,1.32q.77,0,.77,3v3.63q-.16,3.3-.51,3.3h-.51l-3.46.33-.38-1,.13-.33v-.66l-.9-1V35.8a1.63,1.63,0,0,0,1.15-1.65l-.13-5.28.13-.33v-.33l-.13-.33v-.33q.11-3,.38-3l-.26-3h.26l.13.33h.13V20.63l-.38.66h-.26v-.66l.13-.33-.13-.33v-.33L169.4,17l-.13-4,.13-5.94-.13-.33H169l-.64.33-.13-.33v-1L169,2.16l.38.33.51-.33,1,.33Zm-3.72,36.27h.26q0,1.65.51,1.65l-.26.66q-.33,0-.51-2.31M170.17,20l-.13,2,.13.33-.13.33-.13-.33h-.26V23.6l.13.33v-.66h.13l.13.33.77-.66.26.66v.33l-.13.33v.33h.13l.38-.33v-2q-.51,0-.51-2.31Zm-.13-8.9v.66h.26l.26-.66Zm.9,21.11-.13.33v.66l.38-.33Zm.38-20.45-.13-.33h-.13V13l.77-.33-.13-1.65Zm-.26,19.79v.33l.64,1,.51-.33v-.66l-.64-.33Zm.38-12.2-.26,2,.38.66.26-1.32V20.3Zm.13,4.29v.66l.39-.33-.13-1Zm.77,4.95.13.33v.66h-.26v.33h.13a2.46,2.46,0,0,0,.77-2Zm.38-9.23h.13q-.19,1.32-.39,1.32V20Zm4.62-16.65q3,2,4.36,6.92a32.31,32.31,0,0,1,.51,7.26v2l-.13,9.89a18.31,18.31,0,0,0-1.8,4.95l-.51-2-.9,1V33a7.64,7.64,0,0,0,.38,2.31v.33q-.38,0-.64,1l-.13.33q0,1-.26,1h-.13l-.13-.33h-.13a3.53,3.53,0,0,1-2.05,3.3q-1.28,0-1.28-4,1.08-2,1.67-2v-.33h-.26l.26-.66.26.66h.13L176.45,33a14.74,14.74,0,0,0,1.15-4h.26l-.26-5.61v-8.9q-.36-6.93-1.79-6.92l-.13-.33V6.95l.38-1-.26-1,.13-.33h.26l.64,1,.26-.66V4.31h-.26V3.65q0-.82.51-1m-2.44.66h.26v.33l-.38,1L174.52,4Zm.9,0v.33L175.68,5l.13,1h-.13l-.26-.66V5l.13-.33V4.31L175.42,4Zm.13,0h.38V4h-.38Zm3.72,21.77h-.39l-.13-.33H179l-.13,1.32h-.26q0-1-.26-1,0,1.32-.38,1.32v2.31h.51l1.54-3.3h.13l.13.33v.33l-.51.33.26.66a1,1,0,0,1,.64-1L180,24.75v-.33Zm.38-3v1.32l.51.66.38-1v-.33l-.26-.66-.13.33h-.13Zm.9-2-.13.33v1.32l.13-.33h.38a9.43,9.43,0,0,1-.51,3v.33h.13v-.66l.26-.66h.26l-.13,1v.66h.13q0-1.32.51-1.32v-.33q-.38,0-.38-1.32Z"/><path class="cls-1" d="M189.69,35.14l.77,3v.66q-.3,0-.9,1.65-.66,0-.77-1V39.1l.13-.33-.13-.33v-1l.13-.33-.13-.33v-.66q0-.66.9-1m.13-33.64,1.41,1,.51-.33c0,.44.13.66.38.66l1-.33q1.41,0,1.41,2.31l3.33,18.8-.13.33.26.66v.66A93.33,93.33,0,0,0,196,37.45h-.26a16.48,16.48,0,0,1-1.54-5.94q-1.28-6.35-2.69-16.49h.13l-.13-.33v-.33l.13-.33V13.7l-.77-1.65V11.4h.38q0-1.32-.51-1.32,0-1.65.51-1.65l.26-2.31-.64-1.32.13-.33v-1a17,17,0,0,0-.9,4h-.51l-.38-1.65V5.46q0-2.64.77-2.64l-.13-.33Zm-.26,37.92h.13V38.11h-.13Zm1.92-19.13,1.15,4.29v6.93l-.13,1.32q0,1.65.64,1.65,1,1.1,1,1.65-.1,3.63-.38,3.63L193,39.1l-.9,1h-.51l-.38-.66-.26.66-.13-.33v-1H191l.38.33.26-.66h.13v.66h.38l-.13-.33.13-.33v-.66h-.26v-.33l.13-1h-.13c-.17,0-.26-.33-.26-1l.13-1h-.13q-1.15-.33-1.15-1l.13-.33h.13l.39.66h.38l.13-1-.38-1,.51-3.3-.26-.66h.26V26.24q-.17-3-1.15-3v-.33q.29,0,.51-2.31Zm-.9,10.55.39.33v.33h-.51l.13-.33ZM201.74,1.5l.77.66-.26,1.32.39,2h.13q0-1.65.64-1.65l-.26-1.65h.64l.26.66v3a1.18,1.18,0,0,1-.64,1l-.13,1.32.13.33v2.31q0,1-.77,1v.33l.13,1h-.13l.13.33-.26,4.29h-.13L202,17l-.13.33-.13-.33v.66l.38,1.32.13-.33h.26v1l-.26.66-.13-.33H202l-.38,1.32v.33l.26.66H203l.26,1.32v.66a10.51,10.51,0,0,1-1.41,4l.26,1.65-.38.66-.38-1.32-.39.33-.13-.33v-.33l.13-.33v-.33c-.17,0-.26-.33-.26-1h-.51c0,.66-.09,1-.26,1h-.13a5.15,5.15,0,0,0-.64-2.64,6.51,6.51,0,0,0-.51-2.31L197,15.35q1.25-9.4,1.79-10.22l-.13-.33V4.47a6.05,6.05,0,0,1,.77-2.64h.9Zm-2.39,30.31h.13q.26,0,.38,2.31l.38.33q0-2,.64-2l.13,1h.13l.77-1.65q.16,1.65.38,1.65l.38-.33v1.65h.13l.13-.33h.13l.13.33v.33l-.13.33.13.33h-.26v.33l1,2.64q-.26,1.32-.77,1.32V38.74h-.13a4.2,4.2,0,0,1-.26,1.65l-.64-.33-1,.33q0-1-.38-1l.13-1.65-.38-.66-.26.66.13.33a3.09,3.09,0,0,1-1.67,3l-.51-1.65V36.1q0-.66,1.15-1.32Zm-.43-16.46-.38,1.32q0,.66.51.66l.13,1.32h.26l.26-.66V16.34q-.13-1-.77-1M199,36.13l.26,1.65-.13,1,.13.33h.13q0-1.32.64-1.32v-.33l-.64-1.32Zm.39-16.49V19h-.13v.33l.13,1h-.13l.13,1h.13v-1h.38q.29,0,.38,1.65l.51-1v-.33q-.38,0-.38-1.65h-.26v-.33Zm.77,16.49v.66l.39-1v-.33h-.13Zm.9-12.86v1h.51V23.6Zm1.67,8.9h.51v.33l-.13.33.13.33v.66h-.13q-.29,0-.38-1.65"/><path class="cls-1" d="M205.54,1.31l.9.33,4-.33.39,4-.26,7.26.26,5.94h1.54l.64-.33.77.33h.77l.26.66v.66l-.13,1.65h-.13l-.38-.66-.51,1q.13,1,.77,1l.13-.33.13.33v.33a1.64,1.64,0,0,1-1.41,1v-.33l-.13.33-.64-.33h-1.54l-.13.33h-.13v.66h.13l-.13,4.95v3L210.28,34v1.32q.38,0,.38.66v1.32a5.78,5.78,0,0,1-.77,3.3l-.64-.33H208.1l-1.28.33v-.33l-.13.33h-.13q-1.66,0-1.67-3.63V36.6q.43,0,.9-1l-.26-11.21.13-2.64-.13-2,.13-.33-.13-1.65.26-11.87h-.26V5.6l-.13.33h-.26c-.17,0-.26-.33-.26-1ZM208,28q.51,0,.51.66l-.13,1,.13-.33h.13l.13.33h.13l.26-1v-.33l-.51-1.65A2.18,2.18,0,0,0,208,28m1.67-20.12.26.66v.66l-.13-.33h-.39v.66h.39l.13-.33H210l.13.33.13-.33V8.9l-.13-1.65h-.26Zm-.13,13.85v1a.94.94,0,0,0,1,1l.26-1a7.6,7.6,0,0,1-.39-2.31,1.41,1.41,0,0,0-.9,1.32m0,6.27.13.33h.26l.26-.66-.13-.33h-.26ZM212.39.9l.13.33L214.44.9h1.15q.9,0,.9,2.31V9.14l-.13,1.32.13,1-.51.66-.39-.33-.38,1h-.38a18.58,18.58,0,0,0-1-6.27q0-1-.38-1l-.51.66q-1.67-.77-1.67-1.65a10.41,10.41,0,0,0,.26-3ZM215,28.76h.13l.26.66v.66l-.13.33v.33q.75.08.9,2h.13v-1l-.13-.33v-.33l.13-.33h.13l.13.33v1l-.13.33.13.33v1.65l-.13,3,.13,2-.51,1h-.77L214.13,40l-.9.33V39l-1.41,2.31q-.29,0-.39-4l2.31-3q.21,0,.51,2.31,1-.33,1-1,0-2.64-.77-2.64h-.13v-.66l.38-2H215v.66h.13v-1Z"/><path class="cls-1" d="M220.72,14.53H221q.51,0,1.28,6.93-.64,2-1.41,2l-.13.33v1q.26,0,.26,1.65l.13-.33h1.54q.9,0,.9,3l-.39,1,.13,1-.13.33h-.38L222,31l-.77.66h-.38l-.51,3.3q1.28.88,1.28,3.63l-.39.66-.13-.33v.33l.13.33v.33l-.51.66-1.15-.33-.39.33-1-.33-.9.33q-1.18,0-1.41-4.29,0-1,.9-1a12.23,12.23,0,0,0,1.79-6.6q.77-4,1.54-10.22l.13-.33h.13l-.13-.33V17.5q.21-3,.51-3M218.28,37h.51l-.26-.66Zm.9-7.26,1,1.32q.19-1.32.38-1.32l.13.33.13-.33q-.27-2-1-2a2.46,2.46,0,0,0-.64,2m1.54-28H223l.13.33.13-.33q1.91,0,2.44,3L227,16.51l-.38,1a4.06,4.06,0,0,0,1,3q1.63,14.18,2.56,14.18A1.81,1.81,0,0,1,231,36q0,3.63-1.28,3.63l-.64-.33a12.13,12.13,0,0,1-4.74,1.32,11.21,11.21,0,0,1-.64-4,5,5,0,0,0,1.15-2.31l-2.69-18.8-.51-3.63q0-1.32.26-1.32,0-1-.51-1a11.08,11.08,0,0,1-.64-3,1.77,1.77,0,0,1-.9-1.32V4q0-2.31.9-2.31m-.39,22.75v1h.39Zm.9,2.64v.66l.39-.33v-.33Zm1.28-22.75h.13l.13-.33h.13q.06,1.32.38,1.32l.13-.33V4.64q-.51,0-.51-1h.26V3H223Zm0,12.86q.18,1.65.9,1.65h.51V17.17l-.51-1.65Zm.77-2.64v.33l.39.33v-.66Zm.26-1.32v.66l.38.33v-.33l-.26-.66Zm.26,1.32v.66l.38.33v.33l-.13.33v.33h.39l.13-1-.26-.66-.13.33h-.26v-.66Zm.9-4.29q0,1-.39,1v1q.43,0,.9,1l.26-1.65v-.33q-.26-1.32-.77-1.32Zm.26,12.2.26,1.65h.13c0-.44.13-.66.38-.66V23.1Zm1.79,7.26V30l.51,1.32h.38l.13-2-.13-.33H227Z"/><path class="cls-1" d="M231.81,3.07l.77.66h1l.64-.33.13.33v1a11.85,11.85,0,0,1-1.67,5.61l-1.15,5.94q-1.28-.33-1.28-1v-3L230.4,11l-.13-1,.26-2.64-.13-2V4.06q0-.66,1.41-1m5.51-.33h1.41l.26.66v.33l-.13.33.26,3v.66H239l.13,3.3V12.3L239,21.87l.13.33v.33L239,23.85v1.65l.13,2-.13.33v.33l.26,5.61-.13,1q1.41.74,1.41,1.32-.21,4.29-.64,4.29l-2.82.66-.13-.33h-.13l-.51.33q-1.15-.22-1.15-.66l-.13.33h-.51a8.14,8.14,0,0,1-.77-3.3v-.66q1.11-2,1.79-2v-1h-.38v-1L235,31.43l.13-.33v-.33L235,26.15v-.33l.13-1.65-.13-2V16.59l-.13-1.32.26-4.62-.13-.33q0-6.93.9-6.92Zm.39,18.47-.39,1-.13-.33h-.13v1l.13,2.31h-.26l-.13-1.65h-.13q0,1.32-.26,1.32l.13.33v1h-.13l-.13-.33h-.13l.13-1.65v-.66H236l.13.33v.66H236l-.38-.66-.39.33v.33c.17,0,.26.33.26,1h.13v-.66q.26,0,.38,2h.26v.33l.13-.33h.13l.13.33.13-.33h.13q.38,0,.38,1l.51-.66v-1h-.51v-.33q.31-2,.77-2V22.2q-.38,0-.38-.66H238v-.33Zm-2.31,9.23-.13.33v.66h.39V31.1Zm.39-.66v1H236v-.33Zm.51,1,.13,1.65-.38.66a3.25,3.25,0,0,0,.77,2.31h.38q0-1.32.39-1.32-.1-2.31-.9-2.31v-1ZM238.22,12q0,1-.26,1v.66l.51.33V12Zm1.67-8.57h.26l.13.33.13-.33H241q.9.11.9.66l.64-.33H243l.13.33h.13L243,14.94q-.81,0-1.28,1.32L241,11.64,239.63,6.7V4.06Z"/><path class="cls-1" d="M245.74,29.45q.39.33.39,2v1q.55,0,2.05,3.3a3.64,3.64,0,0,1,1.28,2v2q0,.8-1.28,1l-.38-.66-.64.33L245.36,39q-.3,2-.51,2h-.38q-.38,0-.38-3.63v-6.6a1,1,0,0,1,.64-1l.26.66q.13-1,.77-1m3.33-27,.13.33-.13.33v.66l.26.66h.13V3.07h.13l.26.66v2l-1.41,1.65a10.37,10.37,0,0,0-.64,3.63q0,2.64,3.59,4.29a12,12,0,0,1,3.08,5.61A21,21,0,0,1,256,29.45a28,28,0,0,1-1.54,8.24q-1.8,3.63-2.56,3.63h-1L250.36,40V38l1.79-2.64c0-.66.09-1,.26-1h.26l-.13.33v.33h.39V34.4h-.26v-.33H253l.13,1h.13q.7,0,.9-1.32v-.33l-.13.33h-.26v-.33l.13-1-.13-.33h-.39l-.77.66q0-4.29-1.79-4.29l-3.72-2.64q-2.82-4-2.82-12.2v-1q0-6.49,3.08-9.89l.13,1.32h.39l.26-.66L248,3.07Zm-4,29.35.26,1,.38-.33v.66H246v-.66l-.9-1ZM250,20.88l.13,1q.38-.25.64-2.31l-.13-.33q-.51,0-.51,1.65ZM251.9,2.41v.33l-.26,1.65.13,1h.13l.38-.66.38.33V4.72l-.26-1.65.13-.33h.13q0,1,.51,1l.13,2h.13c0-.66.3-1,.9-1A3,3,0,0,1,255,2.41a1.07,1.07,0,0,1,.77,1V4.72q0,2.42-.39,2.64h-.26L255,7h-.13l-.51,2.64q.26,0,.26,1h.13a7.71,7.71,0,0,1,.9-2.64l.13.33v.33q-.33,0-.51,2.31h.13l.39-.33.13.33v.33q-.53,2.31-.77,2.31H255Q252.64,7,251.13,7c-.34,0-.51-.22-.51-.66q0-3.63.64-3.63Zm0,20.45v.33h.38v.33l-.26,1h.13q.27-.14.51-1.65l-.38-.66h-.13Zm.13-2h.26v-1H252Z"/><path class="cls-1" d="M57.51,0h2.82L57.27,5.62q-.28.51-.67.51A.6.6,0,0,1,56.16,6,.59.59,0,0,1,56,5.52a.93.93,0,0,1,0-.22Z"/><path class="cls-1" d="M521.2,289.81v.32h.36v.32l-.24.95h.12q.25-.13.48-1.58l-.36-.63h-.12Z"/></svg>