<?xml version="1.0" encoding="utf-8"?>
<!-- Generator: Adobe Illustrator 21.1.0, SVG Export Plug-In . SVG Version: 6.00 Build 0)  -->
<svg version="1.1" id="_x31_68b5b2c-9dc0-4a41-98a2-420bc6242905"
	 xmlns="http://www.w3.org/2000/svg" xmlns:xlink="http://www.w3.org/1999/xlink" x="0px" y="0px" viewBox="0 0 256 41.9"
	 style="enable-background:new 0 0 256 41.9;" xml:space="preserve">
<title>Logo_Tank</title>
<g>
	<path d="M1.5-38.2l0.8,0.7h1L4-37.9l0.1,0.3v1c-0.1,2-0.7,3.9-1.7,5.6L1.3-25C0.4-25.3,0-25.6,0-26v-3l0.1-1.3l-0.1-1l0.3-2.6
		l-0.1-2v-1.3C0.1-37.7,0.6-38,1.5-38.2 M7.1-38.6h1.4l0.3,0.7v0.3l-0.1,0.3l0.3,3v0.7H8.7l0.1,3.3v1.3l-0.1,9.6l0.1,0.3v0.3
		l-0.1,1.3v1.7l0.1,2l-0.1,0.3v0.3L9-7.6l-0.1,1c0.9,0.5,1.4,0.9,1.4,1.3c-0.1,2.9-0.4,4.3-0.6,4.3L6.8-0.3L6.7-0.6H6.5L6-0.3
		C5.2-0.5,4.9-0.7,4.9-1L4.7-0.6H4.2c-0.5-1-0.7-2.2-0.8-3.3v-0.7c0.7-1.3,1.3-2,1.8-2v-1H4.9v-1L4.7-9.9l0.1-0.3v-0.3l-0.1-4.6
		v-0.3l0.1-1.6l-0.1-2v-5.6L4.6-26l0.3-4.6L4.8-31c0-4.6,0.3-6.9,0.9-6.9L7.1-38.6z M7.4-20l-0.4,1l-0.1-0.3H6.8v1l0.1,2.3H6.7
		l-0.1-1.7H6.4c0,0.9-0.1,1.3-0.3,1.3l0.1,0.3v1H6.2L6-15.5H5.9L6-17.1v-0.7H5.8l0.1,0.3v0.7H5.8l-0.4-0.7L5-17.1v0.3
		c0.2,0,0.3,0.3,0.3,1h0.1v-0.7c0.2,0,0.3,0.7,0.4,2H6v0.3l0.1-0.3h0.1l0.1,0.3l0.1-0.3h0.1c0.3,0,0.4,0.3,0.4,1l0.5-0.7v-1H7.1
		v-0.3c0.2-1.3,0.5-2,0.8-2v-1.7c-0.3,0-0.4-0.2-0.4-0.7h0.3V-20H7.4z M5.1-10.9L5-10.5v0.7h0.4v-0.3L5.1-10.9z M5.5-11.5v1h0.3
		v-0.3L5.5-11.5z M6-10.5l0.1,1.7L5.8-8.2C5.7-7.4,6-6.5,6.5-5.9h0.4c0-0.9,0.1-1.3,0.4-1.3C7.2-8.8,6.9-9.5,6.4-9.5v-1L6-10.5z
		 M7.9-29.3c0,0.7-0.1,1-0.3,1v0.7l0.5,0.3v-2L7.9-29.3z M9.6-37.9h0.3l0.1,0.3l0.1-0.3h0.6c0.6,0.1,0.9,0.3,0.9,0.7l0.6-0.3h0.4
		l0.1,0.3H13l-0.3,10.9c-0.5,0-1,0.4-1.3,1.3l-0.6-4.6l-1.4-4.9v-2.6L9.6-37.9z"/>
	<path d="M17.1-26.8h0.3c0.3,0,0.8,2.3,1.3,6.9c-0.4,1.3-0.9,2-1.4,2l-0.1,0.3v1c0.2,0,0.3,0.6,0.3,1.7l0.1-0.3H19
		c0.6,0,0.9,1,0.9,3l-0.4,1l0.1,1l-0.1,0.3h-0.4l-0.8-0.3l-0.8,0.7h-0.4l-0.5,3.3C17.6-5.7,18-4.5,18-2.7L17.6-2l-0.1-0.3V-2
		l0.1,0.3v0.3l-0.5,0.7L16-1l-0.4,0.3l-1-0.3l-0.9,0.3c-0.8,0-1.3-1.4-1.4-4.3c0-0.7,0.3-1,0.9-1c1.2-2,1.8-4.3,1.8-6.6
		c0.5-2.7,1-6.1,1.5-10.2l0.1-0.3h0.1l-0.1-0.3v-0.3C16.8-25.8,17-26.8,17.1-26.8 M14.7-4.3h0.5L14.9-5L14.7-4.3z M15.6-11.6l1,1.3
		c0.1-0.9,0.3-1.3,0.4-1.3l0.1,0.3l0.1-0.3c-0.2-1.3-0.5-2-1-2C15.7-13.1,15.5-12.3,15.6-11.6 M17.1-39.6h2.3l0.1,0.3l0.1-0.3
		c1.3,0,2.1,1,2.4,3l1.3,11.9l-0.4,1c-0.1,1.1,0.3,2.2,1,3c1.1,9.4,1.9,14.1,2.6,14.1c0.4,0.3,0.7,0.8,0.8,1.3
		c0,2.4-0.4,3.6-1.3,3.6L25.4-2c-1.5,0.8-3.1,1.2-4.7,1.3c-0.5-1.3-0.7-2.6-0.6-4c0.6-0.7,1-1.5,1.2-2.3l-2.7-18.8L18-29.4
		c0-0.9,0.1-1.3,0.3-1.3c0-0.7-0.2-1-0.5-1c-0.4-1-0.6-2-0.6-3c-0.5-0.3-0.8-0.8-0.9-1.3v-1.3C16.2-38.9,16.5-39.6,17.1-39.6
		 M16.7-16.9v1h0.4L16.7-16.9z M17.6-14.2v0.7l0.4-0.3v-0.3H17.6z M18.9-37L18.9-37l0.2-0.3h0.1c0.1,0.8,0.2,1.3,0.4,1.3l0.1-0.3
		v-0.3c-0.3,0-0.5-0.3-0.5-1h0.3v-0.6h-0.1L18.9-37z M18.9-24.1c0.1,1.1,0.4,1.6,0.9,1.6h0.5v-1.6l-0.5-1.6L18.9-24.1z M19.7-26.8
		v0.3l0.4,0.3v-0.7H19.7z M19.9-28v0.7l0.4,0.3v-0.3L20.1-28H19.9z M20.2-26.7v0.7l0.4,0.3v0.3l-0.1,0.3v0.3h0.4l0.1-1l-0.3-0.7
		l-0.1,0.3h-0.3v-0.7L20.2-26.7z M21.1-31c0,0.7-0.1,1-0.4,1v1c0.3,0,0.6,0.3,0.9,1l0.3-1.6V-30c-0.2-0.9-0.4-1.3-0.8-1.3L21.1-31z
		 M21.4-18.8l0.3,1.7h0.1c0-0.4,0.1-0.7,0.4-0.7v-0.3L21.4-18.8z M23.1-11.6v0.3l0.5,1.3H24l0.1-2L24-12.3h-0.6L23.1-11.6z"/>
	<path d="M28.2-30.2h0.3c0.3,1,0.5,2,0.5,3l0.5,1.7c0,0.4-0.2,0.7-0.5,0.7v0.3c0.5,0,0.8,0.2,0.8,0.7l-0.1,1.3l0.1,0.3h0.1l0.3-0.7
		c0.9,2.3,1.4,6.1,1.4,11.2v3.3c0,1.1,0.4,2.2,1.1,3v0.7l-0.1,1l0.1,2v0.3l-0.3,1l-0.6-0.3l-0.9,0.3v-0.3l-0.1,0.3h-1.2l-2-0.3
		L27-0.5c-0.3-1.2-0.4-2.4-0.4-3.6c0.4-0.7,0.8-1,1.1-1v-2.6l0.6-2.3L28-10.4l-0.3,0.7l-0.1-0.3V-19l-0.1-3l0.3-4l-0.1-0.3v-0.3
		c0.2-2.4,0.3-3.6,0.5-3.6 M32.2-38.6c0.9,1.7,1.4,3.7,1.4,5.6c0.3,0,0.4,0.4,0.4,1.3c0.3,0.7,0.9,3.3,1.8,7.9
		c1.7,6.4,2.8,11.6,3.5,15.5l-0.1,0.3l0.1,1.6v1l-0.1,0.3l0.1,0.3v0.3c0,0.4-0.5,1-1.5,2v0.7c0.3,0,0.5,0.2,0.5,0.7l-0.1,0.3H38
		c-0.3,0-0.4-0.3-0.4-1h-0.3c0,0.7-0.4,1-1.1,1c0-0.3-0.2-0.6-0.5-0.7l-0.1,0l-0.1-1.7c0.3,0,0.4-0.3,0.4-1l0.6,0.3
		c0.4-1.5,0.7-2.3,1-2.3v-0.7l-0.3-2.3h-0.3v0.7h-0.4c0-1.5-0.2-2.3-0.5-2.3l-0.3,0.7l-0.3-0.7l-0.1,2.3l0.5,1v0.3h-0.3l0.6,2v0.3
		h-0.1l-0.6-1.3l-0.3,0.7h0.3v0.7l-0.4,0.3l-2.8-12.5l0.4-1c-0.5,0-0.8-0.4-0.8-1.3c-1.8-8.1-2.9-12.6-3.5-13.5
		c-0.4-0.3-0.7-0.8-0.8-1.3v-0.3l0.6,0.3l0.4-0.3v-1.3l-1.1,0.7l-0.1-0.3v-0.3l0.1-0.3h-0.6v-1.3c0-0.5,0.4-1,0.9-1h0.1l0.1,0.3h0.1
		l0.5-0.3H29l0.3,0.7l-0.3,1c0,0.6,0.4,1.1,0.9,1.3v-0.7l-0.3-1v-1L32.2-38.6z M29-33.2l0.1,0.3h0.1l0.1-0.3v-1L29-33.2z M29.4-5.2
		h-0.1l-0.1-0.3H29v0.7c0.3,0,0.5,0.5,0.5,1.6l0.6,0.7l0.5-1v-0.7l-0.1-1l0.1-0.3L30-6.2L29.4-5.2z M29.3-19.7l0.1,1h-0.3l0.3,0.7
		l0.6-0.3v-1l-0.4-1L29.3-19.7z M29.6-32.5v0.3c0,0.4,0.2,0.7,0.5,0.7v0.7h0.3v-0.7L29.6-32.5z M30.5-32.9v1.3l0.4,0.3v-0.3
		L30.5-32.9z M31.5-26.6v0.3c0.1,0.7,0.3,1.2,0.5,1.3l0.3-1L32-26.6L31.5-26.6z M32.8-16.7v0.3l0.2,1.3h0.3l0.3-0.7
		C33.5-16.1,33.2-16.5,32.8-16.7 M38.2-38.8l0.8,0.3l0.1-0.3h0.1l0.8,1.3l0.6-0.3c0,2.9-0.2,4.3-0.6,4.3c-0.4,0-0.7,1-0.8,3l0.1,2
		l-0.1,1.3l0.1,1.3l-0.1,0.3v0.3l0.1,1.7l-0.1,1.3l0.1,1.2l-0.1,4.3v0.3h-0.1c-1.1-1.9-1.7-4.1-1.9-6.3v-2l0.6-2.3l-0.1-0.3h-0.4v1
		L37-26.9v-0.7h0.1L37-29.9v-3l-0.8-0.7l-0.5,0.3c-0.2,0-0.3-0.3-0.3-1c0-3.1,0.3-4.6,1-4.6L38.2-38.8z M37.6-12.4v0.4l0.3,0.7
		l0.3-0.7v-0.3L37.6-12.4z"/>
	<path d="M41.6-39h0.3l1.1,0.3l0.2-0.3l0.6,0.3h0.4l2.3-0.3c1.2,0,1.8,1.2,1.8,3.6l-1.2,2l-0.4-1c-0.3,0.2-0.5,0.6-0.5,1v0.7
		l0.1,1.6h0.5l0.1-0.3h0.1l0.1,0.3v1l-0.1,0.3l0.1,0.3l-0.4,10.9l0.3,2.6v1.3h-0.3v0.6c0.3,0,0.5,1.8,0.5,5.3l-0.1,0.3h-0.1L47-8.7
		l-0.4,2l1.5,3.3v1.6c-0.2,1.1-0.6,1.7-1.3,1.7l-0.8-1.7l0.1-0.3v-0.3H46v-0.3l-1,2.3h-1c-1.2,0-2-0.9-2.4-2.6v-1.4
		c0.1-0.5,0.4-1,0.8-1.3l0.3-1l-0.1-1.6v-1.3h0.3v1H43l0.3-2.6h-0.1l0.1-0.3v-0.7c-0.5-1.5-0.7-3.1-0.6-4.6v-2.6l-0.1-1.3l0.1-0.3
		v-0.3l-0.1-4.9l0.1-4.6l0.5,0.3l0.6-0.3v-1c-0.3,0-0.4-0.7-0.4-2l-0.8,0.7c0-1.1-0.1-1.6-0.3-1.6c-0.5-0.4-0.8-1-0.9-1.6L41.6-39z
		 M42.9-4.7v1.3l0.3-0.7L42.9-4.7z M43.3-7v1.3c0.2,1.1,0.6,1.7,1,1.7h0.1l0.3-3c0-0.4-0.3-0.8-0.7-1C43.6-7.9,43.2-7.5,43.3-7
		 M43.9-30.1l-0.1,1H44v-1H43.9z M44.6-25.2l0.8,1.6l0.5-2c-0.2,0-0.3-0.5-0.4-1.6H45C44.8-27,44.6-26.3,44.6-25.2 M45.1-15.3
		l-0.3,2v1l0.8,1.6h0.1c0.4-1.3,0.7-2,0.9-2V-13c-0.3,0-0.4-0.3-0.4-1C46-14,45.6-14.5,45.1-15.3 M44.9-10.4v0.4
		c0.1,0.9,0.3,1.3,0.4,1.3v-1L45-10.4L44.9-10.4z M45.3-6v0.7l0.4,0.3v-0.3L45.5-6H45.3z M49.6-39h3.3l0.1,0.3l0.1-0.3h0.1l0.1,0.3
		l0.9-0.3h0.6l0.4,1v1.6c0,0.8-0.8,1.6-2.3,2.3l-2.4,8.9c1.6,7.6,3,13.4,4.2,17.5c0.6,1.2,1,2.4,1.3,3.6c-0.3,2.2-0.6,3.3-0.8,3.3
		h-0.4l-0.1-0.3l-0.1,0.3h-0.1l-0.1-0.3l-2.8,1l-1.1-0.3l-0.4,0.3c-0.4-1.3-0.6-2.6-0.6-4l0.8-2l-2.1-9.2l-0.4-1.3l0.3-0.7
		c-0.3-1.6-0.6-3.3-0.6-5c0.3-1.9,0.8-3.8,1.5-5.6l1.5-5.6v-1.3c-0.3,0-0.6-0.3-0.8-1l-0.1,0.3h-0.1L49.2-36v-2L49.6-39z"/>
	<path d="M58.6-12.6c0.3,0.2,0.4,0.9,0.4,2v1c0.4,0,1.1,1.1,2.1,3.3c0.6,0.5,1.1,1.2,1.3,2v2c0,0.5-0.4,0.9-1.3,1L60.7-2L60-1.7
		L58.2-3c-0.2,1.3-0.4,2-0.5,2h-0.4C57.1-1,57-2.3,57-4.7v-6.6c0-0.4,0.2-0.8,0.6-1l0.3,0.7C58-12.3,58.2-12.6,58.6-12.6 M62-39.6
		l0.1,0.3L62-39v0.7l0.3,0.7h0.1V-39h0.1l0.3,0.7v2l-1.5,1.6c-0.4,1.2-0.6,2.4-0.6,3.6c0,1.8,1.2,3.2,3.6,4.3
		c1.5,1.6,2.6,3.5,3.1,5.6c1.1,2.7,1.6,5.6,1.5,8.6c-0.1,2.8-0.6,5.6-1.5,8.2c-1.2,2.4-2.1,3.6-2.6,3.6h-1L63.2-2v-2L65-6.7
		c0-0.7,0.1-1,0.3-1h0.3l-0.1,0.3V-7h0.4v-0.7h-0.3V-8h0.4L66-7h0.1c0.5,0,0.8-0.4,0.9-1.3v-0.3l-0.1,0.3h-0.2v-0.3l0.1-1L66.7-10
		h-0.4l-0.8,0.7c0-2.9-0.6-4.3-1.8-4.3L60-16.2c-1.9-2.7-2.8-6.7-2.8-12.2v-1c0-4.3,1-7.6,3.1-9.9l0.1,1.3h0.4l0.3-0.7L60.9-39
		L62-39.6z M58-10.3l0.3,1l0.4-0.3V-9h0.3v-0.7l-0.9-1V-10.3z M62.9-21.2l0.1,1c0.3-0.2,0.5-0.9,0.6-2.3l-0.1-0.3
		c-0.3,0-0.5,0.5-0.5,1.6L62.9-21.2z M64.8-39.6v0.3l-0.3,1.6l0.1,1h0.1l0.4-0.7l0.4,0.3v-0.3L65.3-39l0.1-0.3h0.1
		c0,0.7,0.2,1,0.5,1l0.1,2h0.1c0-0.7,0.3-1,0.9-1c-0.1-0.8,0.1-1.7,0.6-2.3c0.4,0.1,0.8,0.5,0.8,1v1.3c0,1.6-0.1,2.5-0.4,2.6H68
		L67.9-35h-0.1l-0.5,2.6c0.2,0,0.3,0.3,0.3,1h0.1c0.1-0.9,0.4-1.8,0.9-2.6l0.1,0.3v0.3c-0.2,0-0.4,0.8-0.5,2.3h0.1l0.4-0.3l0.1,0.3
		v0.3c-0.4,1.5-0.6,2.3-0.8,2.3h-0.1C66.3-32.8,65-35,64-35c-0.3,0-0.5-0.2-0.5-0.7c0-2.4,0.2-3.6,0.6-3.6L64.8-39.6z M64.8-19.2
		v0.3h0.4v0.3l-0.3,1H65c0.2-0.1,0.4-0.6,0.5-1.7l-0.4-0.7H65L64.8-19.2z M64.9-21.2h0.3v-1h-0.3V-21.2z"/>
	<path d="M79.3-16.6l0.1,0.3v0.3l-0.3,1.3h0.1l0.4-0.7c0,0.9,0.3,1.3,0.9,1.3l0.3,2v1.6c-0.7,0-1-0.4-1-1.3
		c-0.2,0.4-0.7,0.7-1.7,0.7l0.3,1l0.6-0.3l0.3,1l0.6-1l0.1,1.6l-0.4,1.3V-7l0.1-0.3H80c0,1.1,0.4,1.6,1.1,1.6V-5h0.1v-0.3l-0.1-1
		L81.5-7c0.5,0.4,0.8,1,0.9,1.6c-0.1,2.4-0.3,3.6-0.6,3.6h-3.9l-1-0.7h-0.3l-0.9,0.7l-0.1-0.3v-2.4l-0.1-2c0.2-1,0.3-1.6,0.5-1.6
		h0.8v-0.7h0.1L76.7-9v-4H77v-2c0.5,0,0.8-0.3,0.8-1h0.4l0.5,1C78.6-15.7,78.9-16.3,79.3-16.6 M76.1-40.2l2.7,0.7v-0.3l0.1,0.3
		l2.1-0.7c0.5,0.2,0.8,0.4,0.8,0.7l0.1-0.3H82l0.3,0.7v2.3c0,1.7-0.4,2.5-1.3,2.6l-0.3,5.1l0.1,0.3l-0.1,2.3v5.3l0.1,3.3
		c-0.5,0.4-1.1,0.7-1.8,0.7c0-0.5-0.4-1.1-1.1-1.7c0,0.7-0.1,1-0.3,1l-0.1-1l0.1-0.3v-0.3c-0.1-0.9-0.4-1.8-0.9-2.6V-31l-0.1-3.3
		h0.1c-0.1-0.9-0.4-1.3-0.9-1.3l-0.3-1v-1.6L76.1-40.2z M77.1-17.3v0.3l-0.3,0.7l-0.1-0.3V-17l0.1-0.3H77.1z M77.6-14.7v0.6h0.8
		v-0.3L78.1-15L77.6-14.7z M78.6-14v0.3c0.3,0,0.4,0.3,0.4,1h0.1v-1c-0.2,0-0.3-0.3-0.3-1L78.6-14z M78.9-7.4v1l0.4,0.3l0.1-0.3v-1
		H78.9z M79.1-3.4v0.3l0.3-0.7v-0.3L79.1-3.4z M80.3-13l0.1,1h0.1v-1H80.3z"/>
	<path d="M87.6-39.6l0.6,0.3l1-0.3l0.3,0.7l-0.3,3l0.1,0.3l-0.3,14.2l0.1,0.3v0.3c-0.2,2.4-0.4,3.6-0.8,3.6S88-17,88.1-16.5h0.3v0.7
		h-0.2L88-16.2h-0.1c-0.4,1.1-0.6,2.2-0.6,3.3c-0.3,0-0.4,0.2-0.4,0.7c0.4,0.3,0.6,0.8,0.5,1.3l0.9-0.3v0.3l0.5-0.7l0.4,0.3v2
		c0,1.7,0.3,2.7,1,3V-6c0,3-0.4,4.7-1.1,4.9l-0.8-0.3h-0.6l-0.1-2.3l0.1-0.3L87-4.4c0,0.5-0.2,1-0.5,1.4h-0.3L86-3.4L85.9-3h-0.3
		l-0.1-0.3h-0.1l0.1-0.3v-1h-0.3V-5l-0.4,0.3L85-4.4v0.7h-0.3l0.1,0.3V-3l-0.1,0.3h-0.1l-0.1-1h-0.8c-0.2,0-0.4-0.8-0.5-2.3
		c0.9-0.8,1.4-1.3,1.4-1.7c0-1.5,0.1-2.3,0.3-2.3v0.7h0.3l0.3-0.7l0.1,0.3h0.1c0.2,0,0.3-0.4,0.3-1.3c0.3,0,0.6-0.2,0.6-0.5l0-0.2
		l0.1-2.6c-0.5,1.2-0.9,2.4-1.1,3.6h-0.1L84.8-12v-0.3l0.1-0.3V-13l-0.1-0.3h-0.1c0.1-1.3,0.2-2,0.3-2l-0.1-1.7v-4.6l-0.1-1.3
		l0.1-1.3l-0.1-0.3l0.1-1.6l-0.1-5.6l0.1-2c-0.9-0.5-1.4-1-1.4-1.3v-0.3c0-1.4,0.3-2.7,0.8-4H85l0.1,0.3l0.1-0.3h1.5L87.6-39.6z
		 M84-2.7h0.1v1h-0.4V-2L84-2.7z M85.4-36v0.3l0.3,0.7l0.1-0.3l-0.1-1.3L85.4-36z M90.2-39.6h0.4l0.8,0.3l0.1-0.3h0.1l1.2,0.7
		l0.4-0.3c1.6,0.9,2.4,2,2.4,3.3c0.5,1.8,0.8,3.7,0.9,5.6v2.3c0,5.4-0.6,8.9-1.9,10.6c-0.4,0.8-1.1,1.3-1.9,1.6v0.3h1.7l0.1,0.3
		l0.1-0.3h0.1l1.1,7.6c0.5,0,0.9,0.5,1.1,1.7V-3c-0.1,0.7-0.3,1-0.8,1h-2.2l-1.9,0.3L92-2v-1l0.1-0.3c-0.3-1-0.5-2-0.5-3l0.1-0.3V-7
		c-0.4-0.6-0.9-4.1-1.7-10.5L90-17.8v-0.3l0.1-2l-0.1-1c1.5-0.5,2.3-2.1,2.3-4.9l0.1-3.3l-0.1-1.3l0.1-1c0-1.7-0.6-2.8-1.8-3.3
		l-0.4,0.3L90.1-35v-0.3L90.2-39.6z M95.4-21.8l0.1,0.3h0.1v-1L95.4-21.8z"/>
	<path d="M103.9-0.6h-0.1l-0.6-1.7L103-1.9v0.3l0.1,0.3l-0.4,0.3c-2.4-1.3-3.6-3-3.6-5c-0.6,0-1-4.8-1.3-14.5l0.1-0.3V-21l-0.1-1
		c0.3-3.4,0.7-6.9,1.3-10.2l0.6,0.3h0.3l0.3-0.7l-0.3-2c1.2-4.2,2.5-6.3,4-6.3h0.3l0.6,2.6c-0.1,1.3-0.6,2.6-1.4,3.6
		c-0.3,0-0.6,2.7-0.9,8.2l0.1,2.3l-0.1,8v1l0.1,2.3h-0.1c0,5.1,0.6,7.6,1.8,7.6l0.3,2.6v0.7L103.9-0.6z M99.5-21.4l0.4-1.3h-0.3V-23
		l0.1-0.3v-0.3L99.7-24h-0.3c0,0.6-0.1,1.2-0.4,1.7L99.5-21.4z M100.1-11.8v-1l-0.3-0.7h-0.3c0.1,1.1,0.2,1.6,0.4,1.6L100.1-11.8z
		 M101.6-27.6l0.1-0.3v-0.3l-0.1-0.3h-0.5L101.6-27.6z M102-2.2l-0.3-0.7h-0.1v0.7H102z M102.5-14.4l-0.3-0.7h-0.1v0.7H102.5z
		 M107.4-0.6c-1.2,0-1.8-1.1-1.8-3.3c0.5-1.3,1.1-2,1.7-2h0.5l0.3-1.6l-0.4-1l0.1-0.3l-0.1-0.3c0.2-1.7,0.3-7.2,0.4-16.5
		c0-5.8-0.8-9.1-2.3-9.9l-0.1-3.3c0.2-1.1,0.6-1.6,1-1.6c3,0,5.2,5.5,6.5,16.5v0.3c-0.5,1-0.7,2.2-0.6,3.3c0.3,0,0.4,0.4,0.4,1.3
		h0.3c0,1.9-0.3,3.1-0.8,3.6l-0.1-0.3h-0.1l-0.4,1.6l0.8,2c-0.2,1.6-0.5,3.1-1,4.6h-0.1c0.1-0.9-0.2-1.9-0.8-2.6h-0.4
		c0,0.8-0.1,1.6-0.3,2.3v0.7c0,0.5,0.3,0.9,0.8,1l0.4-0.3v0.3l-1.5,3.3h-0.3l-0.4-0.7h-0.1l-0.3,0.7l0.1,0.3L107.4-0.6z M108.3-29.6
		l0.5-2.6h-0.6v0.7H108l0.1,0.3v0.3l-0.1,1.3L108.3-29.6z M109.7-11.1v-1.3h-0.1v0.7h-0.4v-0.3l0.3-1v-1l-0.5-1.7l-0.1,0.3h-0.4
		l-0.1-0.3h-0.1v0.3l0.1,1.7l-0.1,0.3c0.2,0,0.3,0.7,0.5,2c0.3,0,0.6,0.2,0.6,0.5l0,0.2L109.7-11.1z M109.3-20v-0.3l-0.4-1l-0.1,1
		l0.1,0.3H109.3z M109.6-4.5v-0.3l-0.3-0.7v1L109.6-4.5z M111.1-20c-0.2-1-0.3-1.6-0.5-1.6h-0.6v0.6h0.4v0.3l-0.3,1v0.3l0.3,0.7
		C110.8-18.7,111.1-19.2,111.1-20 M111.7-9.8v-1l-0.3,0.7v0.3L111.7-9.8z"/>
	<path d="M115.5-31h0.3c0.3,1,0.5,2,0.5,3l0.5,1.7c0,0.4-0.2,0.7-0.5,0.7v0.3c0.5,0,0.8,0.2,0.8,0.7l-0.1,1.3l0.1,0.3h0.1l0.3-0.7
		c0.9,2.3,1.4,6.1,1.4,11.2v3.3c0,1.1,0.4,2.2,1.1,3v0.7l-0.1,1l0.1,2v0.3l-0.3,1l-0.6-0.3l-0.9,0.3v-0.3l-0.1,0.3h-1.1l-2-0.3
		l-0.5,0.3c-0.3-1.2-0.4-2.4-0.4-3.6c0.4-0.7,0.8-1,1.1-1v-2.7l0.6-2.3l-0.4-0.3l-0.3,0.7l-0.1-0.3v-8.9l-0.1-3l0.3-4L115-27v-0.3
		C115.2-29.8,115.3-31,115.5-31 M119.6-39.2c0.9,1.7,1.4,3.7,1.4,5.6c0.3,0,0.4,0.4,0.4,1.3c0.3,0.7,0.9,3.3,1.8,7.9
		c1.7,6.4,2.8,11.6,3.5,15.5l-0.1,0.3l0.1,1.7v1l-0.1,0.3l0.1,0.3v0.3c0,0.4-0.5,1-1.5,2v0.7c0.3,0,0.5,0.2,0.5,0.7l-0.1,0.3h-0.1
		c-0.3,0-0.4-0.3-0.4-1h-0.4c0,0.7-0.4,1-1.1,1c0-0.3-0.2-0.6-0.5-0.7l-0.1,0l-0.1-1.6c0.3,0,0.4-0.3,0.4-1l0.6,0.3
		c0.4-1.5,0.7-2.3,1-2.3v-0.7l-0.3-2.3h-0.3v0.7h-0.4c0-1.5-0.2-2.3-0.5-2.3l-0.3,0.7l-0.3-0.7l-0.1,2.3l0.5,1v0.3H123l0.6,2v0.3
		h-0.1l-0.6-1.3l-0.3,0.7h0.3v0.7l-0.4,0.3l-2.8-12.5l0.4-1c-0.5,0-0.8-0.4-0.8-1.3c-1.8-8.2-3-12.7-3.5-13.6
		c-0.4-0.3-0.7-0.8-0.8-1.3v-0.3l0.6,0.3l0.4-0.3v-1.3l-1.1,0.7l-0.1-0.3v-0.3l0.1-0.3h-0.6v-1.3c0-0.5,0.4-1,0.9-1h0.1l0.1,0.3h0.1
		l0.5-0.3h0.3l0.3,0.7l-0.3,1c0,0.6,0.4,1.1,0.9,1.3v-0.7l-0.3-1v-1L119.6-39.2z M116.3-33.9l0.1,0.3h0.1l0.1-0.3v-1L116.3-33.9z
		 M116.7-5.9h-0.1l-0.1-0.3h-0.1v0.7c0.3,0,0.5,0.5,0.5,1.6l0.6,0.7l0.5-1V-5l-0.1-1l0.1-0.3L117.3-7L116.7-5.9z M116.5-20.5l0.1,1
		h-0.3l0.3,0.7l0.6-0.3v-1l-0.4-1L116.5-20.5z M116.9-33.3v0.3c0,0.4,0.2,0.7,0.5,0.7v0.7h0.3v-0.6L116.9-33.3z M117.8-33.6v1.4
		l0.4,0.3v-0.3L117.8-33.6z M118.8-27.4v0.3c0.1,0.7,0.3,1.2,0.5,1.3l0.3-1l-0.3-0.7L118.8-27.4z M120.1-17.5v0.3l0.1,1.3h0.3
		l0.3-0.7C120.8-16.9,120.5-17.3,120.1-17.5 M125.5-39.6l0.8,0.3l0.1-0.3h0.1l0.8,1.3l0.6-0.3c0,2.9-0.2,4.3-0.6,4.3
		c-0.4,0-0.7,1-0.8,3l0.1,2l-0.1,1.3l0.1,1.3l-0.1,0.3v0.4l0.1,1.6l-0.1,1.4l0.1,1.3l-0.1,4.3v0.3h-0.1c-1.1-1.9-1.7-4.1-1.9-6.3v-2
		l0.6-2.3L125-28h-0.4v1l-0.3-0.7v-0.6h0.1l-0.1-2.3v-3l-0.8-0.7l-0.5,0.3c-0.2,0-0.3-0.3-0.3-1c0-3.1,0.3-4.6,1-4.6L125.5-39.6z
		 M124.9-13.2v0.3l0.3,0.7l0.3-0.7v-0.3H124.9z"/>
	<path d="M133.3-39.7v0.3l0.1-0.3h0.8l0.3,0.7l-0.5,0.7c0,1.2,0.3,2.5,0.8,3.6c-0.6,1.9-0.9,8.8-0.9,20.8c0,4.4,0.3,6.6,0.9,6.6
		c0,0.5,0.4,1,1.3,1.7v1.7l-0.1,0.3l0.1,0.3v1.3l-0.1,0.3v0.3L135-1.8v-0.7l0.4-1.3l-0.1-0.3v-0.3l0.1-1h-0.1l-0.6-0.3l0.1,0.3
		l-0.1,1.6v1l0.1,0.3v0.3l-0.4,0.3c-0.3,0-0.7-0.5-1-1.7h-0.1l-0.1,0.3H133l-0.6-1.3h-0.1v-0.3l0.1-0.3v-0.3L132-6l-0.6,0.3
		c-1.2-1.8-2-5.7-2.6-11.5v-1l0.3-0.7l-0.3-1v-3.6c0.2-3.9,0.4-6,0.8-6.3l0.4-0.3l-0.3-1.6c0.5-2.4,0.8-3.8,1-4l0.1,0.3h0.2l0.6-0.7
		l0.1,0.3c0.1-2.4,0.5-3.6,1.3-3.6l0.1-0.3L133.3-39.7z M130-13.3v0.7l0.6,2h0.4l0.3-0.7l-0.5-1.3V-13l0.1-0.3v-0.3L130-13.3z
		 M131-25.2l0.1,2h0.3v-1.3l-0.3-0.7H131z M132.4-31.1c0.2,1.3,0.4,2,0.5,2h0.6v-0.7h-0.6l0.1-1.7h0.1l0.1,0.3h0.1v-0.3l-0.1-1H133
		L132.4-31.1z M133.2-7l0.1,0.3v0.3l-0.1,1.7l0.1,0.3l-0.1,0.3l0.4,0.3l0.4-3.3l-0.1-0.3h-0.1L133.2-7z M133.4-8.7l0.1,1h0.1
		l0.3-0.7v-0.3L133.4-8.7z M135.6-40l0.5,1v0.3l-0.1,1.3l0.1,1.4c-0.5,0.9-0.9,1.3-1.4,1.3v-0.4c-0.1-0.7,0.1-1.4,0.5-2l0.1-1.3
		l-0.6-1.3L135.6-40z M137.7-40.6c1.5,0.1,2.3,0.8,2.3,2h0.1l0.9-2h0.6v0.7c-0.3,0-0.4,0.5-0.5,1.6l0.6,2v6.6c0,2.2-0.3,3.3-1,3.3
		c0,0.4-0.2,0.7-0.5,0.7l-0.7-4.3c-0.7-2.5-1.6-4.9-2.7-7.3l-0.1-0.3V-38C136.8-39.7,137.1-40.6,137.7-40.6 M141-16l0.5,1.3v0.3
		c0,5-0.8,9.1-2.4,12.2l-1.7,1c-0.2-1.1-0.4-2.2-0.4-3.3c0-1.4,0.6-2.7,1.7-3.6c0.8-2.5,1.3-5,1.5-7.6l0.1-0.3L141-16z M137.7-37.7
		v0.3l0.8,1.6h0.3l0.4-2.6c0-0.5-0.2-1-0.6-1.3C137.9-39.6,137.7-39,137.7-37.7 M139.6-32.4v0.7c0,0.8,0.5,1.4,1.3,1.6v-0.3
		l-0.1-1.7l0.1-0.3c-0.3,0-0.4-0.5-0.4-1.6h-0.3L139.6-32.4z"/>
	<path d="M144.5-40l0.5,0.3l0.5-0.3c0.3,0,0.6,0.2,0.6,0.5l0,0.1l0.1-0.3h1.3l1.2-0.3l0.6,0.3v3.3l-0.3,0.7l-0.1-1h-0.3l-0.4,1
		l0.1,0.3c-0.3,0.2-0.4,0.9-0.4,2v8.2l-0.1,2l0.1,0.3v0.3l-0.1,1.6l0.1,0.3l-0.1,1.6v2l0.1,8.6l-0.6,3l0.1,0.3h0.1l0.1-0.3h0.1
		l0.5,0.7l0.9-0.7v2l-0.3,0.7v-0.7h-0.3V-3l0.1,0.3v0.3c-0.2,0.5-0.6,0.8-1.1,1l-0.1-0.3l-2.3,0.7l-0.3-0.7l-0.3,0.7h-1.2l-0.6,0.3
		c-0.4-1.5-0.6-3.1-0.5-4.6v-1h1V-7h0.3c0,0.7,0.4,1,1.1,1c0,0.4-0.1,0.7-0.4,0.7V-5c0.3,0,0.6,0.2,0.6,0.5l0,0.1l-0.5,0.3v0.7
		l0.1-0.3h0.3L145-2l0.6-0.3l-0.1-0.3V-3l0.6-0.7L146-5.4v-1.3l0.3-1L146.2-9H146v0.7h-0.1l-0.1-0.3h-0.1l-0.1,1h-0.3v-1h-1l-0.5,1
		h-0.1v-0.7l0.1-10.9l-0.1-7.6l0.1-3.3l-0.1-1.6l0.1,0.3h0.3v-0.3h-0.3V-33l0.3-1.3l0.5,1c-0.1-1,0.2-1.9,0.8-2.7v-0.3
		c-0.2,0-0.3-0.3-0.3-1l-0.1-0.3h-0.6c-0.1,0-0.3,0.4-0.4,1.3L144-35v0.3h-0.4v-2c-0.2,0-0.3,0.4-0.3,1.3l-0.1,0.3h-0.4l-0.3-0.7v-1
		c0-2.2,0.5-3.3,1.5-3.3L144.5-40z M144.2-26.4v0.3c0,0.7,0.2,1,0.5,1c0.2-0.1,0.4-0.7,0.6-1.7l-0.9-0.3L144.2-26.4z M144.2-17.5
		v0.3l0.1,1.7h0.1l0.6-1.3v-1.3h-0.6L144.2-17.5z M147.6-3.4v1h0.1L148-3l-0.1-0.3L147.6-3.4z M153-15.9h0.1l1.4,1.3L154.3-9v0.3
		l0.1,1.3L154.3-6v2.3c-0.2,1.1-0.4,1.7-0.6,1.7l-0.1-0.3l-1.9,0.7V-2l-0.1,0.3h-0.6c-0.5,0-0.8-0.4-0.9-1.3v-2.6l0.4-1v0.3
		c1.7-1.3,2.7-3.4,2.6-5.6l-0.1-0.3v-0.3L153-15.9z M151.6-4h0.3l0.3-0.7V-5H152L151.6-4z M152-5.4c0.3,0,0.6,0.5,0.9,1.6h0.1v-1
		L152.5-6h-0.3L152-5.4z"/>
	<path d="M158.7-27.5h0.3c0.3,0,0.8,2.3,1.3,6.9c-0.4,1.3-0.9,2-1.4,2l-0.1,0.3v1c0.2,0,0.3,0.6,0.3,1.7l0.1-0.3h1.5
		c0.6,0,0.9,1,0.9,3l-0.4,1l0.1,1l-0.1,0.3h-0.4L160-11l-0.8,0.7h-0.4l-0.5,3.3c0.9,0.6,1.3,1.8,1.3,3.6l-0.4,0.7l-0.1-0.3v0.3
		l0.1,0.3v0.3l-0.5,0.7l-1.1-0.3l-0.4,0.3l-1-0.3l-0.9,0.3c-0.8,0-1.3-1.4-1.4-4.3c0-0.7,0.3-1,0.9-1c1.2-2,1.8-4.3,1.8-6.6
		c0.5-2.7,1-6.1,1.5-10.2l0.1-0.3h0.1l-0.1-0.3v-0.3C158.4-26.5,158.5-27.5,158.7-27.5 M156.3-5h0.5l-0.3-0.7L156.3-5z M157.2-12.3
		l1,1.3c0.1-0.9,0.3-1.3,0.4-1.3l0.1,0.3l0.1-0.3c-0.2-1.3-0.5-2-1-2C157.3-13.8,157.1-13,157.2-12.3 M158.7-40.3h2.3l0.1,0.3
		l0.1-0.3c1.3,0,2.1,1,2.4,3l1.3,11.8l-0.4,1c-0.1,1.1,0.3,2.2,1,3c1.1,9.5,1.9,14.2,2.6,14.2c0.4,0.3,0.7,0.8,0.8,1.3
		c0,2.4-0.4,3.6-1.3,3.6L167-2.7c-1.5,0.8-3.1,1.2-4.7,1.3c-0.5-1.3-0.7-2.6-0.6-4c0.6-0.7,1-1.5,1.1-2.3l-2.7-18.8l-0.5-3.6
		c0-0.9,0.1-1.3,0.3-1.3c0-0.7-0.2-1-0.5-1c-0.4-1-0.6-2-0.6-3c-0.5-0.3-0.8-0.8-0.9-1.3V-38C157.8-39.6,158.1-40.4,158.7-40.3
		 M158.3-17.6v1h0.4L158.3-17.6z M159.2-15v0.7l0.4-0.3V-15H159.2z M160.5-37.7h0.1l0.1-0.3h0.1c0,0.9,0.2,1.3,0.4,1.3l0.1-0.3v-0.4
		c-0.3,0-0.5-0.3-0.5-1h0.3V-39H161L160.5-37.7z M160.5-24.9c0.1,1.1,0.4,1.6,0.9,1.6h0.5v-1.7l-0.5-1.6L160.5-24.9z M161.3-27.5
		v0.3l0.4,0.3v-0.7H161.3z M161.5-28.8v0.7l0.4,0.3v-0.3l-0.3-0.7H161.5z M161.8-27.5v0.7l0.4,0.3v0.3l-0.1,0.3v0.3h0.4l0.1-1
		l-0.3-0.7l-0.1,0.3h-0.3v-0.7L161.8-27.5z M162.7-31.8c0,0.7-0.1,1-0.4,1v1c0.3,0,0.6,0.3,0.9,1l0.3-1.7v-0.3
		c-0.2-0.9-0.4-1.3-0.8-1.3V-31.8z M163-19.6l0.3,1.6h0.1c0-0.4,0.1-0.7,0.4-0.7v-0.3L163-19.6z M164.7-12.3v0.3l0.5,1.3h0.4l0.1-2
		l-0.1-0.3H165L164.7-12.3z"/>
	<path d="M172-40.2c0.6,0,1.1,0.8,1.3,2.3v0.3h-0.1l-0.3-0.7c-0.3,0-0.4,0.3-0.4,1c-0.3,1.1-0.7,1.6-1,1.6l-0.1-0.3l-0.1,0.3v0.3
		l0.3,0.7h0.4c0-0.7,0.1-1,0.3-1l0.3,1v0.6h-0.3l-0.2-0.3h-0.1v0.3l0.1,0.3v0.3l-0.3,0.7c0.3,0.7,0.5,1.5,0.5,2.3l0.1-0.3h0.4
		l0.1,0.3h0.1V-31l0.4,0.3l0.4-0.3v3.6l-0.3,0.7l-0.1-0.3v0.3l0.3,1l-0.1,0.3h-0.1l-0.4-1h-0.1c-0.4,0.6-0.6,1.3-0.5,2h-0.3V-25
		l0.1-0.3v-0.3H172v1.3l0.1,2.3l-0.1,0.3c0.4,1.2,0.8,1.8,1.3,2c0-0.7,0.1-1,0.3-1c0.2,0,0.3,0.3,0.3,1l-0.1,0.3v0.3l0.1,0.3v0.3
		l-0.1,0.3v0.3l0.1,2.6c0,0.7-0.2,1.4-0.5,2l-0.1,1.3c0.5,0,0.8,1,0.8,3v3.6c-0.1,2.2-0.3,3.3-0.5,3.3h-0.5l-3.5,0.3l-0.4-1l0.1-0.3
		v-0.7l-0.9-1v-1.7c0.7-0.2,1.2-0.9,1.1-1.7l-0.1-5.3l0.1-0.3v-0.3l-0.1-0.3v-0.3c0.1-2,0.2-3,0.4-3l-0.3-3h0.3l0.1,0.3h0.1v-1.3
		l-0.4,0.7h-0.3v-0.7l0.1-0.3l-0.1-0.3v-0.3l0.1-2.6l-0.1-4l0.1-5.9l-0.1-0.3H169l-0.6,0.3l-0.1-0.3v-1l0.8-3.6l0.4,0.3l0.5-0.3
		l1,0.3L172-40.2z M168.3-3.9h0.3c0,1.1,0.2,1.7,0.5,1.7l-0.3,0.7C168.6-1.6,168.4-2.4,168.3-3.9 M170.2-22l-0.1,2l0.1,0.3l-0.1,0.3
		l-0.1-0.3h-0.3v1.3l0.1,0.3v-0.7h0.1l0.1,0.3l0.8-0.7l0.3,0.7v0.3l-0.1,0.3v0.3h0.1l0.4-0.3v-2c-0.3,0-0.5-0.8-0.5-2.3L170.2-22z
		 M170-30.9v0.7h0.3l0.3-0.7H170z M170.9-9.8l-0.1,0.3v0.7l0.4-0.3L170.9-9.8z M171.3-30.3l-0.1-0.3h-0.1v1.6l0.8-0.3l-0.1-1.6
		L171.3-30.3z M171.1-10.5v0.3l0.6,1l0.5-0.3v-0.7l-0.6-0.3L171.1-10.5z M171.4-22.7l-0.3,2l0.4,0.7l0.3-1.3v-0.4L171.4-22.7z
		 M171.6-18.4v0.7l0.4-0.3l-0.1-1L171.6-18.4z M172.3-13.5l0.1,0.3v0.7h-0.3v0.3h0.1c0.5-0.5,0.8-1.3,0.8-2L172.3-13.5z M172.7-22.7
		h0.1c-0.1,0.9-0.3,1.3-0.4,1.3V-22L172.7-22.7z M177.3-39.3c2,1.3,3.5,3.6,4.4,6.9c0.4,2.4,0.6,4.8,0.5,7.3v2l-0.1,9.9
		c-0.8,1.6-1.4,3.2-1.8,5l-0.5-2l-0.9,1V-9c0,0.8,0.1,1.6,0.4,2.3v0.3c-0.3,0-0.5,0.3-0.6,1l-0.1,0.3c0,0.7-0.1,1-0.3,1h-0.1
		L178-4.4h-0.1c0,1.4-0.8,2.7-2,3.3c-0.9,0-1.3-1.3-1.3-4c0.7-1.3,1.3-2,1.7-2v-0.3h-0.3l0.3-0.7l0.3,0.7h0.1L176.5-9
		c0.6-1.3,1-2.6,1.1-4h0.3l-0.3-5.6v-8.9c-0.2-4.6-0.8-6.9-1.8-6.9l-0.1-0.3v-0.3l0.4-1l-0.3-1l0.1-0.3h0.3l0.6,1l0.3-0.7v-0.6h-0.3
		v-0.7C176.8-38.9,177-39.3,177.3-39.3 M174.9-38.7h0.3v0.3l-0.4,1l-0.3-0.6L174.9-38.7z M175.8-38.7v0.3l-0.1,1.4l0.1,1h-0.1
		l-0.3-0.7V-37l0.1-0.3v-0.4l-0.1-0.3L175.8-38.7z M175.9-38.7h0.4v0.7h-0.4V-38.7z M179.7-17h-0.4l-0.1-0.3H179l-0.1,1.3h-0.3
		c0-0.7-0.1-1-0.3-1c0,0.9-0.1,1.3-0.4,1.3v2.3h0.5l1.5-3.3h0.1l0.1,0.3v0.3l-0.5,0.3L180-15c0-0.4,0.2-0.8,0.6-1l-0.7-1.3v-0.3
		L179.7-17z M180-20v1.3l0.5,0.7l0.4-1v-0.3l-0.3-0.7l-0.1,0.3h-0.1L180-20z M180.9-22l-0.1,0.3v1.3l0.1-0.3h0.4c0,1-0.2,2-0.5,3
		v0.3h0.1V-18l0.3-0.7h0.3l-0.1,1v0.7h0.1c0-0.9,0.2-1.3,0.5-1.3v-0.3c-0.3,0-0.4-0.4-0.4-1.3L180.9-22z"/>
	<path d="M189.7-6.9l0.8,3v0.7c-0.2,0-0.5,0.5-0.9,1.6c-0.4,0-0.7-0.3-0.8-1v-0.3l0.1-0.3l-0.1-0.3v-1l0.1-0.3l-0.1-0.3v-0.7
		C188.8-6.4,189.1-6.7,189.7-6.9 M189.8-40.6l1.4,1l0.5-0.3c0,0.4,0.1,0.7,0.4,0.7l1-0.3c0.9,0,1.4,0.8,1.4,2.3l3.3,18.8l-0.1,0.3
		l0.3,0.7v0.7c-0.9,4-1.6,8.1-2,12.2h-0.3c-0.9-1.9-1.4-3.9-1.5-5.9c-0.9-4.2-1.8-9.7-2.7-16.5h0.1l-0.1-0.3v-0.3l0.1-0.3v-0.3
		l-0.8-1.7v-0.6h0.4c0-0.9-0.2-1.3-0.5-1.3c0-1.1,0.2-1.6,0.5-1.6l0.3-2.3l-0.6-1.3l0.1-0.3v-1c-0.5,1.3-0.8,2.6-0.9,4h-0.5
		l-0.4-1.7v-0.4c0-1.8,0.3-2.6,0.8-2.6l-0.1-0.3L189.8-40.6z M189.6-2.6h0.1v-1.3h-0.1V-2.6z M191.5-21.8l1.1,4.3v6.9l-0.1,1.3
		c0,1.1,0.2,1.7,0.6,1.7c0.7,0.7,1,1.3,1,1.6c-0.1,2.4-0.2,3.6-0.4,3.6L193-2.9l-0.9,1h-0.5l-0.4-0.7L191-1.9l-0.1-0.3v-1h0.2
		l0.4,0.3l0.3-0.7h0.1v0.7h0.4L192-3.3l0.1-0.3v-0.7h-0.3v-0.3l0.1-1h-0.1c-0.2,0-0.3-0.3-0.3-1l0.1-1h-0.1c-0.8-0.2-1.1-0.6-1.1-1
		l0.1-0.3h0.1l0.4,0.7h0.4l0.1-1l-0.4-1l0.5-3.3l-0.3-0.7h0.3v-1.6c-0.1-2-0.5-3-1.2-3v-0.3c0.2,0,0.4-0.8,0.5-2.3L191.5-21.8z
		 M190.6-11.2l0.4,0.3v0.3h-0.5l0.1-0.3L190.6-11.2z M201.7-40.5l0.8,0.7l-0.3,1.3l0.4,2h0.1c0-1.1,0.2-1.6,0.6-1.6l-0.3-1.6h0.6
		l0.3,0.7v3c0,0.4-0.3,0.8-0.6,1l-0.1,1.3l0.1,0.3v2.3c0,0.7-0.3,1-0.8,1v0.3l0.1,1h-0.1l0.1,0.3l-0.3,4.3h-0.1L202-25l-0.1,0.3
		l-0.1-0.3v0.7l0.4,1.3l0.1-0.3h0.3v1l-0.3,0.7l-0.1-0.3H202l-0.4,1.3v0.3l0.3,0.7h1.1l0.3,1.3v0.7c-0.2,1.4-0.7,2.8-1.4,4l0.3,1.7
		l-0.4,0.7l-0.4-1.3l-0.4,0.3l-0.1-0.3v-0.3l0.1-0.3v-0.3c-0.2,0-0.3-0.3-0.3-1h-0.5c0,0.7-0.1,1-0.3,1h-0.1c0-0.9-0.2-1.8-0.6-2.6
		c0-0.8-0.2-1.6-0.5-2.3l-1.7-8c0.8-6.3,1.4-9.7,1.8-10.2l-0.1-0.3v-0.3c0.1-0.9,0.3-1.8,0.8-2.6h0.9L201.7-40.5z M199.4-10.2h0.1
		c0.2,0,0.3,0.8,0.4,2.3l0.4,0.3c0-1.3,0.2-2,0.6-2l0.1,1h0.1l0.8-1.6c0.1,1.1,0.2,1.6,0.4,1.6l0.4-0.3v1.7h0.1l0.1-0.3h0.1l0.1,0.3
		v0.3l-0.1,0.3l0.1,0.3h-0.3V-6l1,2.6c-0.2,0.9-0.4,1.3-0.8,1.3v-1.3H203c0,0.6-0.1,1.1-0.3,1.7L202.1-2l-1,0.3c0-0.7-0.1-1-0.4-1
		l0.1-1.7L200.5-5l-0.3,0.7l0.1,0.3c0.1,1.2-0.6,2.4-1.7,3l-0.5-1.6v-3.3c0-0.4,0.4-0.9,1.1-1.3L199.4-10.2z M198.9-26.7l-0.4,1.3
		c0,0.4,0.2,0.7,0.5,0.7l0.1,1.3h0.3l0.3-0.7v-1.7C199.6-26.4,199.4-26.7,198.9-26.7 M199-5.9l0.3,1.6l-0.1,1l0.1,0.3h0.1
		c0-0.9,0.2-1.3,0.6-1.3v-0.3l-0.6-1.3L199-5.9z M199.4-22.4V-23h-0.1v0.3l0.1,1h-0.1l0.1,1h0.1v-1h0.4c0.2,0,0.3,0.5,0.4,1.6l0.5-1
		v-0.3c-0.3,0-0.4-0.5-0.4-1.6h-0.3v-0.3L199.4-22.4z M200.2-5.9v0.7l0.4-1v-0.3h-0.1L200.2-5.9z M201.1-18.8v1h0.5v-0.7L201.1-18.8
		z M202.7-9.9h0.5v0.3l-0.1,0.3l0.1,0.3v0.7h-0.1C202.9-8.2,202.8-8.8,202.7-9.9"/>
	<path d="M205.5-40.7l0.9,0.3l4-0.3l0.4,4l-0.3,7.3l0.3,5.9h1.5l0.6-0.3l0.8,0.3h0.8l0.3,0.7v0.7l-0.1,1.6h-0.1l-0.4-0.7l-0.5,1
		c0.1,0.7,0.3,1,0.8,1l0.1-0.3l0.1,0.3v0.3c-0.2,0.6-0.8,1-1.4,1v-0.3l-0.1,0.3l-0.6-0.3H211l-0.1,0.3h-0.1v0.7h0.1l-0.1,5v3
		L210.3-8v1.3c0.3,0,0.4,0.2,0.4,0.7v1.3c0.1,1.2-0.2,2.3-0.8,3.3l-0.6-0.3h-1.1l-1.3,0.3v-0.3l-0.1,0.3h-0.1
		c-1.1,0-1.7-1.2-1.7-3.6v-0.4c0.3,0,0.6-0.3,0.9-1l-0.3-11.2l0.1-2.6l-0.1-2l0.1-0.3l-0.1-1.6l0.3-11.9h-0.3v-0.3l-0.1,0.3h-0.3
		c-0.2,0-0.3-0.3-0.3-1L205.5-40.7z M208-14c0.3,0,0.5,0.2,0.5,0.7l-0.1,1l0.1-0.3h0.1l0.1,0.3h0.1l0.3-1v-0.3l-0.5-1.6
		C208.3-15,208.1-14.5,208-14 M209.7-34.2l0.3,0.7v0.7l-0.1-0.3h-0.4v0.7h0.4l0.1-0.3h0.1l0.1,0.3l0.1-0.3v-0.3l-0.1-1.6h-0.3
		L209.7-34.2z M209.5-20.3v1c0,0.5,0.4,1,0.9,1h0.1l0.3-1c-0.2-0.7-0.4-1.5-0.4-2.3C209.9-21.4,209.5-20.9,209.5-20.3 M209.5-14
		l0.1,0.3h0.3l0.3-0.7l-0.1-0.3h-0.3L209.5-14z M212.4-41.1l0.1,0.3l1.9-0.3h1.1c0.6,0,0.9,0.8,0.9,2.3v5.9l-0.1,1.3l0.1,1l-0.5,0.7
		l-0.4-0.3l-0.4,1h-0.4c0-2.1-0.3-4.3-1-6.3c0-0.7-0.1-1-0.4-1l-0.5,0.7c-1.1-0.5-1.7-1.1-1.7-1.7c0.2-1,0.3-2,0.3-3L212.4-41.1z
		 M215-13.3h0.1l0.3,0.7v0.7l-0.1,0.3v0.3c0.5,0.1,0.8,0.7,0.9,2h0.1v-1l-0.1-0.3V-11l0.1-0.3h0.1l0.1,0.3v1l-0.1,0.3l0.1,0.3v1.7
		l-0.1,3l0.1,2l-0.5,1h-0.8L214.1-2l-0.9,0.3V-3l-1.4,2.3c-0.2,0-0.3-1.3-0.4-4l2.3-3c0.1,0,0.3,0.8,0.5,2.3c0.7-0.2,1-0.6,1-1
		c0-1.8-0.3-2.6-0.8-2.6h-0.1v-0.7l0.4-2h0.3v0.7h0.1v-1L215-13.3z"/>
	<path d="M220.7-27.5h0.3c0.3,0,0.8,2.3,1.3,6.9c-0.4,1.3-0.9,2-1.4,2l-0.1,0.3v1c0.2,0,0.3,0.6,0.3,1.7l0.1-0.3h1.5
		c0.6,0,0.9,1,0.9,3l-0.4,1l0.1,1l-0.1,0.3h-0.4L222-11l-0.8,0.7h-0.4l-0.5,3.3c0.9,0.6,1.3,1.8,1.3,3.6l-0.4,0.7l-0.1-0.3v0.3
		l0.1,0.3v0.3l-0.5,0.7l-1.2-0.3l-0.4,0.3l-1-0.3l-0.9,0.3c-0.8,0-1.3-1.4-1.4-4.3c0-0.7,0.3-1,0.9-1c1.2-2,1.8-4.3,1.8-6.6
		c0.5-2.7,1-6.1,1.5-10.2l0.1-0.3h0.1l-0.1-0.3v-0.3C220.4-26.5,220.5-27.5,220.7-27.5 M218.3-5h0.5l-0.3-0.7L218.3-5z M219.2-12.3
		l1,1.3c0.1-0.9,0.3-1.3,0.4-1.3l0.1,0.3l0.1-0.3c-0.2-1.3-0.5-2-1-2C219.3-13.8,219.1-13,219.2-12.3 M220.7-40.3h2.3l0.1,0.3
		l0.1-0.3c1.3,0,2.1,1,2.4,3l1.3,11.8l-0.4,1c-0.1,1.1,0.3,2.2,1,3c1.1,9.5,1.9,14.2,2.6,14.2c0.5,0.3,0.8,0.8,0.8,1.3
		c0,2.4-0.4,3.6-1.3,3.6l-0.6-0.3c-1.5,0.8-3.1,1.2-4.7,1.3c-0.5-1.3-0.7-2.6-0.6-4c0.6-0.7,1-1.5,1.2-2.3l-2.7-18.8l-0.5-3.6
		c0-0.9,0.1-1.3,0.3-1.3c0-0.7-0.2-1-0.5-1c-0.4-1-0.6-2-0.6-3c-0.5-0.3-0.8-0.8-0.9-1.3V-38C219.9-39.6,220.2-40.4,220.7-40.3
		 M220.4-17.6v1h0.4L220.4-17.6z M221.3-15v0.7l0.4-0.3V-15H221.3z M222.5-37.7h0.1l0.1-0.3h0.1c0,0.9,0.2,1.3,0.4,1.3l0.1-0.3v-0.4
		c-0.3,0-0.5-0.3-0.5-1h0.3V-39H223L222.5-37.7z M222.5-24.9c0.1,1.1,0.4,1.6,0.9,1.6h0.5v-1.7l-0.5-1.6L222.5-24.9z M223.3-27.5
		v0.3l0.4,0.3v-0.7H223.3z M223.6-28.8v0.7l0.4,0.3v-0.3l-0.3-0.7H223.6z M223.8-27.5v0.7l0.4,0.3v0.3l-0.1,0.3v0.3h0.4l0.1-1
		l-0.3-0.7l-0.1,0.3H224v-0.7L223.8-27.5z M224.7-31.8c0,0.7-0.1,1-0.4,1v1c0.3,0,0.6,0.3,0.9,1l0.3-1.7v-0.3
		c-0.2-0.9-0.4-1.3-0.8-1.3V-31.8z M225-19.6l0.3,1.6h0.1c0-0.4,0.1-0.7,0.4-0.7v-0.3L225-19.6z M226.8-12.3v0.3l0.5,1.3h0.4l0.1-2
		l-0.1-0.3H227L226.8-12.3z"/>
	<path d="M231.8-39l0.8,0.7h1l0.6-0.3l0.1,0.3v1c-0.1,2-0.7,3.9-1.7,5.6l-1.2,5.9c-0.9-0.2-1.3-0.6-1.3-1v-3l0.2-1.3l-0.1-1l0.3-2.6
		l-0.1-2V-38C230.4-38.4,230.9-38.8,231.8-39 M237.3-39.3h1.4l0.3,0.7v0.3l-0.1,0.3l0.3,3v0.7H239l0.1,3.3v1.3l-0.1,9.6l0.1,0.3v0.3
		l-0.1,1.3v1.7l0.1,2l-0.1,0.3v0.3l0.3,5.6l-0.1,1c0.9,0.5,1.4,0.9,1.4,1.3c-0.1,2.9-0.4,4.3-0.6,4.3L237.1-1L237-1.3h-0.1L236.3-1
		c-0.8-0.1-1.2-0.4-1.2-0.7L235-1.3h-0.5c-0.5-1-0.7-2.2-0.8-3.3v-0.7c0.7-1.3,1.3-2,1.8-2v-1h-0.4v-1l-0.2-1.3l0.1-0.3v-0.3
		l-0.1-4.6v-0.3l0.1-1.6l-0.1-2v-5.6l-0.1-1.3l0.3-4.6l-0.1-0.3c0-4.6,0.3-6.9,0.9-6.9L237.3-39.3z M237.7-20.8l-0.4,1l-0.1-0.3
		h-0.1v1l0.1,2.3h-0.3l-0.1-1.7h-0.1c0,0.9-0.1,1.3-0.3,1.3l0.1,0.3v1h-0.1l-0.1-0.3h-0.1l0.1-1.7v-0.7H236l0.1,0.3v0.7H236
		l-0.4-0.7l-0.4,0.3v0.3c0.2,0,0.3,0.3,0.3,1h0.1v-0.7c0.2,0,0.3,0.7,0.4,2h0.3v0.3l0.1-0.3h0.1l0.1,0.3l0.1-0.3h0.1
		c0.3,0,0.4,0.3,0.4,1l0.5-0.7v-1h-0.5v-0.3c0.2-1.3,0.5-2,0.8-2v-1.7c-0.3,0-0.4-0.2-0.4-0.7h0.3v-0.3L237.7-20.8z M235.4-11.6
		l-0.1,0.3v0.7h0.4v-0.3L235.4-11.6z M235.8-12.3v1h0.2v-0.3L235.8-12.3z M236.3-11.3l0.1,1.7L236-9c-0.1,0.8,0.2,1.7,0.8,2.3h0.4
		c0-0.9,0.1-1.3,0.4-1.3c-0.1-1.5-0.4-2.3-0.9-2.3v-1L236.3-11.3z M238.2-30c0,0.7-0.1,1-0.3,1v0.7l0.5,0.3v-2H238.2z M239.9-38.6
		h0.3l0.1,0.3l0.1-0.3h0.6c0.6,0.1,0.9,0.3,0.9,0.7l0.6-0.3h0.5l0.1,0.3h0.1L243-27.1c-0.5,0-1,0.4-1.3,1.3l-0.7-4.6l-1.4-4.9V-38
		L239.9-38.6z"/>
	<path d="M245.7-12.6c0.3,0.2,0.4,0.9,0.4,2v1c0.4,0,1.1,1.1,2.1,3.3c0.6,0.5,1.1,1.2,1.3,2v2c0,0.5-0.4,0.9-1.3,1L247.8-2l-0.6,0.3
		L245.4-3c-0.2,1.3-0.4,2-0.5,2h-0.4c-0.3,0-0.4-1.2-0.4-3.6v-6.6c0-0.4,0.2-0.8,0.6-1l0.3,0.7C245.1-12.3,245.3-12.6,245.7-12.6
		 M249.1-39.6l0.1,0.3l-0.1,0.3v0.7l0.3,0.7h0.1V-39h0.1l0.3,0.7v2l-1.4,1.6c-0.4,1.2-0.6,2.4-0.6,3.6c0,1.8,1.2,3.2,3.6,4.3
		c1.5,1.6,2.6,3.5,3.1,5.6c1.1,2.7,1.6,5.6,1.5,8.5c-0.1,2.8-0.6,5.6-1.5,8.2c-1.2,2.4-2.1,3.6-2.6,3.6h-1L250.4-2v-2l1.8-2.6
		c0-0.7,0.1-1,0.3-1h0.3l-0.1,0.3V-7h0.4v-0.6h-0.3V-8h0.3l0.1,1h0.1c0.5,0,0.8-0.4,0.9-1.3v-0.3L254-8.3h-0.3v-0.3l0.1-1l-0.1-0.3
		h-0.4l-0.8,0.7c0-2.9-0.6-4.3-1.8-4.3l-3.7-2.6c-1.9-2.7-2.8-6.7-2.8-12.2v-1c0-4.3,1-7.6,3.1-9.9l0.1,1.3h0.4l0.3-0.7L248-39
		L249.1-39.6z M245.1-10.3l0.3,1l0.4-0.3v0.7h0.3v-0.7l-0.9-1L245.1-10.3z M250-21.2l0.1,1c0.3-0.2,0.5-0.9,0.6-2.3l-0.1-0.3
		c-0.3,0-0.5,0.5-0.5,1.6L250-21.2z M251.9-39.6v0.3l-0.3,1.6l0.1,1h0.1l0.4-0.7l0.4,0.3v-0.3l-0.3-1.7l0.1-0.3h0.1
		c0,0.7,0.2,1,0.5,1l0.1,2h0.1c0-0.7,0.3-1,0.9-1c-0.1-0.8,0.1-1.7,0.7-2.3c0.4,0.1,0.8,0.5,0.8,1v1.3c0,1.6-0.1,2.5-0.4,2.6h-0.3
		L255-35h-0.1l-0.5,2.6c0.2,0,0.3,0.3,0.3,1h0.1c0.1-0.9,0.4-1.8,0.9-2.6l0.1,0.3v0.3c-0.2,0-0.4,0.8-0.5,2.3h0.1l0.4-0.3l0.1,0.3
		v0.3c-0.4,1.5-0.6,2.3-0.8,2.3H255c-1.6-4.4-2.9-6.6-3.9-6.6c-0.3,0-0.5-0.2-0.5-0.7c0-2.4,0.2-3.6,0.6-3.6L251.9-39.6z
		 M251.9-19.2v0.3h0.4v0.3l-0.3,1h0.1c0.2-0.1,0.3-0.6,0.5-1.7l-0.4-0.7h-0.1L251.9-19.2z M252-21.2h0.3v-1H252L252-21.2z"/>
	<path d="M57.5-42h2.8l-3.1,5.6c-0.2,0.3-0.4,0.5-0.7,0.5c-0.2,0-0.3,0-0.4-0.1C56-36.2,56-36.4,56-36.5v-0.2L57.5-42z"/>
</g>
</svg>
